<svg width="24" height="24" viewBox="0 0 24 24" fill="none" xmlns="http://www.w3.org/2000/svg">
<rect width="24" height="24" fill="white"/>
<path d="M11.7948 6H11.7677C4.6227 6 1 8.46911 1 13.339V13.838C1 16.332 2.82585 17.5966 6.42779 17.5966H17.135C20.7366 17.5966 22.5625 16.332 22.5625 13.838V13.339C22.5622 8.46911 18.9395 6 11.7948 6ZM17.5511 7.46628C17.4897 9.43398 16.6591 10.9057 16.2363 10.9057C15.9817 10.8441 15.5192 9.44097 15.4737 6.96092C16.2341 7.08574 16.9277 7.25308 17.5511 7.46628ZM11.7948 6.69214C12.1471 6.69214 12.4881 6.69943 12.8212 6.71128C12.7809 8.91526 11.865 10.8975 11.5045 10.9057C11.2417 10.8426 10.7575 9.34773 10.7392 6.71128C11.0726 6.69943 11.4132 6.69214 11.7652 6.69214H11.7948ZM8.08299 6.96153C7.98195 9.06498 7.11924 10.8987 6.77092 10.9057C6.538 10.9057 6.03612 10.0299 6.00804 7.46689C6.63049 7.25399 7.32347 7.08665 8.08299 6.96153ZM21.8665 13.8377C21.8665 15.9011 20.3187 16.9042 17.1347 16.9042L11.8003 16.9039L6.42749 16.9042C3.24347 16.9042 1.69572 15.9011 1.69572 13.8377V13.3387C1.69572 10.6479 2.89026 8.79013 5.31537 7.73628C5.35567 9.36535 5.62064 11.5979 6.77092 11.5979C7.88548 11.5979 8.70667 8.87152 8.78268 6.86009C9.18504 6.81028 9.6051 6.77202 10.0426 6.74468C10.0545 8.09465 10.2098 11.5979 11.503 11.5979C12.6389 11.5979 13.4705 8.76523 13.5187 6.74468C13.955 6.77232 14.3738 6.81059 14.7752 6.85979C14.7948 8.28325 14.9767 11.5982 16.2344 11.5982C17.2138 11.5982 18.1107 9.81118 18.2361 7.73233C20.6689 8.78557 21.8665 10.6442 21.8665 13.3387V13.8377Z" fill="#D97904"/>
</svg>
