<svg width="24" height="24" viewBox="0 0 24 24" fill="none" xmlns="http://www.w3.org/2000/svg">
<g clip-path="url(#clip0_1823_1646)">
<rect width="24" height="24" fill="white"/>
<path d="M5.75023 24.7011C5.63964 24.7011 5.54816 24.6137 5.54543 24.5018C5.5427 24.3912 5.49628 21.7671 7.51694 19.3901C8.25966 18.5163 9.31368 17.7763 10.8264 17.0827C10.8264 17.0813 10.8264 17.08 10.8264 17.0772V14.3808C10.821 13.522 10.8469 10.6794 11.4108 10.222C11.5569 10.1032 11.6784 10.0063 11.7794 9.92713C12.0534 9.70959 12.1922 9.53847 12.1958 9.41377C12.2027 9.18986 12.2013 8.68606 12.2013 8.28056V7.99795L11.9433 0.339932C11.9392 0.226612 12.0279 0.132406 12.1412 0.12831C12.2532 0.124214 12.3488 0.212959 12.3529 0.326279L12.6109 7.99112V8.28056C12.6109 8.70927 12.6109 9.19532 12.6054 9.42606C12.5945 9.80425 12.5085 9.87251 12.0334 10.2493C11.9337 10.3285 11.8136 10.4241 11.6688 10.5415C11.3889 10.7695 11.2265 12.711 11.236 14.3808V16.8069C12.9577 16.1925 14.0144 15.5249 14.6602 14.9528V14.3821C14.6712 12.711 14.5087 10.7695 14.2274 10.5415C14.1045 10.4418 13.9994 10.3572 13.9093 10.2862C13.9066 10.2835 13.9025 10.2807 13.8998 10.278C13.8875 10.2685 13.8752 10.2589 13.8629 10.2493C13.3878 9.87251 13.3017 9.80425 13.2908 9.42606C13.284 9.19669 13.2854 8.712 13.2854 8.28329V7.99795L13.5434 0.326279C13.5475 0.212959 13.6417 0.124214 13.755 0.12831C13.8683 0.132406 13.9571 0.226612 13.953 0.339932L13.695 8.00477V8.28329C13.695 8.68743 13.695 9.18986 13.7004 9.41377C13.7041 9.53847 13.8429 9.70959 14.1168 9.92713C14.1168 9.92713 14.1237 9.93259 14.1264 9.93532C14.2725 9.98037 14.7476 10.1469 15.2064 10.5429C15.276 10.603 15.347 10.6699 15.4166 10.7436C16.2522 11.3703 17.171 12.311 17.1055 13.3909C17.0318 14.6333 15.6719 15.7256 13.0669 16.6349C10.4414 17.551 8.8249 18.4821 7.82823 19.6563C5.9127 21.9091 5.95229 24.4663 5.95366 24.4922C5.95639 24.6056 5.86764 24.6998 5.75432 24.7025C5.75296 24.7025 5.75023 24.7025 5.74886 24.7025L5.75023 24.7011ZM16.1825 13.0864C16.188 13.2544 16.1607 14.3671 14.5169 15.6C15.919 14.916 16.6522 14.1678 16.7 13.3663C16.7314 12.8352 16.4583 12.3287 16.072 11.8863C16.1703 12.2263 16.218 12.6236 16.1839 13.0864H16.1825ZM14.7776 10.7968C15.0589 11.8003 15.0739 13.7063 15.0698 14.3835V14.546C15.1313 14.4763 15.1859 14.4108 15.2364 14.3466C15.7962 13.6271 15.773 13.1028 15.773 13.0974C15.773 13.0878 15.773 13.0769 15.773 13.0687C15.8453 12.1239 15.5422 11.4877 15.164 11.0685C15.0316 10.9702 14.9005 10.8787 14.7776 10.7968Z" fill="#D97904" stroke="#D97904" stroke-width="0.1"/>
<path d="M12.1489 16.8142H11.7393V12.4411L11.7748 12.3892C11.7939 12.3605 11.9741 12.1052 12.2499 12.1052C12.3687 12.1052 12.5434 12.1544 12.7018 12.3892L12.7359 12.4411V16.5561H12.3263V12.5722C12.2936 12.5326 12.2608 12.5107 12.2485 12.5148C12.2239 12.5148 12.183 12.5435 12.1489 12.5776V16.8142ZM13.6138 16.0988H13.2042V12.4411L13.2397 12.3892C13.2588 12.3605 13.4391 12.1052 13.7149 12.1052C13.8336 12.1052 14.0098 12.1544 14.1668 12.3892L14.2009 12.4411V15.726H13.7913V12.5722C13.7585 12.5326 13.7299 12.5148 13.7135 12.5148C13.6862 12.5148 13.6452 12.5462 13.6138 12.5776V16.0988Z" fill="#D97904"/>
<path d="M6.53698 24.7015C6.52742 24.7015 6.51786 24.7015 6.50831 24.7001C6.39635 24.6851 6.31853 24.5813 6.33355 24.4694C6.98753 19.7495 8.9645 18.873 13.7417 16.7554C16.1706 15.6782 16.8491 14.6828 16.9911 14.0357C17.0225 13.8951 17.0294 13.7654 17.0212 13.6479C17.0198 13.637 17.0184 13.6261 17.0184 13.6152C16.9816 13.2179 16.7741 12.9748 16.7618 12.9626C16.688 12.8779 16.6949 12.7482 16.7795 12.6745C16.8642 12.5994 16.9925 12.6062 17.0676 12.6895C17.0826 12.7072 17.3611 13.0213 17.4212 13.536C17.5072 13.6507 17.6888 13.9319 17.7557 14.3224C18.3305 15.0938 17.8049 16.2284 17.0594 16.9711C16.2211 17.8053 14.6578 18.5098 13.1451 19.1911C12.1457 19.6416 11.1135 20.1072 10.3353 20.5919C8.61634 21.6637 8.54262 24.3875 8.54125 24.4148C8.53852 24.5267 8.44841 24.6155 8.33646 24.6155C8.33646 24.6155 8.33373 24.6155 8.33236 24.6155C8.21904 24.6127 8.12893 24.5199 8.13166 24.4066C8.13439 24.2864 8.20948 21.4343 10.1182 20.2437C10.9196 19.744 11.9654 19.273 12.9771 18.817C14.4558 18.1507 15.9849 17.4612 16.77 16.6803C17.1522 16.2994 17.383 15.9294 17.4977 15.599C17.3229 15.8952 17.069 16.182 16.7358 16.4564C15.675 17.3302 14.3561 17.9241 13.0795 18.4975C12.244 18.873 11.3784 19.2621 10.6056 19.7236C8.58085 20.9305 7.84904 22.1169 7.70841 24.4243C7.70159 24.5376 7.60602 24.6236 7.49133 24.6168C7.37801 24.61 7.292 24.5131 7.29882 24.3997C7.44901 21.9313 8.22996 20.6629 10.394 19.3727C11.1872 18.9003 12.0624 18.5057 12.9102 18.1261C14.1622 17.5636 15.4552 16.982 16.4737 16.1424C17.0239 15.6891 17.3243 15.2126 17.3639 14.7279C17.3762 14.5791 17.3625 14.4412 17.3352 14.3197C17.0062 15.3204 15.8538 16.2652 13.9042 17.1295C8.93173 19.3344 7.33159 20.2356 6.73632 24.5253C6.72266 24.6277 6.63392 24.7015 6.53425 24.7015H6.53698ZM7.68247 19.7522C7.61967 19.7522 7.55823 19.7236 7.51863 19.6703C6.35812 18.1262 5.98539 16.653 6.41001 15.2918C7.26196 12.5584 10.9933 11.2832 11.1531 11.23C11.2609 11.1945 11.377 11.2518 11.4125 11.3597C11.448 11.4675 11.3906 11.5836 11.2828 11.6191C11.2459 11.6314 7.58963 12.882 6.80049 15.416C6.4182 16.6434 6.77045 17.9937 7.84631 19.4259C7.91458 19.516 7.89546 19.6444 7.80535 19.7126C7.76849 19.7399 7.7248 19.7536 7.68247 19.7536V19.7522ZM8.33919 18.9644C8.28184 18.9644 8.22586 18.9412 8.18491 18.8948C6.7486 17.2619 7.12133 15.7928 7.67428 14.5723C8.3897 12.9953 10.88 12.1434 10.9865 12.1079C11.093 12.0724 11.2091 12.1297 11.2459 12.2362C11.2828 12.3427 11.2241 12.4601 11.1176 12.4956C11.093 12.5038 8.69007 13.3271 8.04837 14.7416C7.5241 15.8993 7.21417 17.1704 8.49347 18.6245C8.56856 18.7091 8.56036 18.8388 8.47435 18.9139C8.43476 18.9481 8.38697 18.9644 8.33919 18.9644ZM9.13926 18.3842C9.08328 18.3842 9.02867 18.3623 8.98771 18.3173C8.93583 18.2613 7.73299 16.9192 8.27092 15.416C8.98634 13.4158 10.9169 12.9844 10.9988 12.968C11.1094 12.9448 11.2186 13.0158 11.2418 13.1264C11.265 13.237 11.1954 13.3462 11.0848 13.3694C11.0602 13.3749 9.29354 13.779 8.65867 15.5553C8.20539 16.8236 9.28125 18.0306 9.29217 18.0429C9.36863 18.1261 9.3618 18.2559 9.27852 18.3323C9.23892 18.3678 9.18977 18.3856 9.14062 18.3856L9.13926 18.3842ZM10.2684 17.8258C10.2329 17.8258 10.196 17.8162 10.1632 17.7971C10.1182 17.7698 9.06416 17.1267 9.22937 16.1847C9.38364 15.3027 10.2656 14.4972 11.0493 14.5286C11.1626 14.5327 11.25 14.6282 11.2459 14.7416C11.2418 14.8549 11.1449 14.9395 11.0329 14.9382C10.5087 14.9136 9.76047 15.5211 9.63213 16.2557C9.51608 16.9206 10.3653 17.4421 10.3735 17.4476C10.4704 17.5063 10.5018 17.6319 10.4431 17.7288C10.4049 17.793 10.3366 17.8285 10.267 17.8285L10.2684 17.8258ZM11.0398 17.2046C11.022 17.2046 11.0029 17.2018 10.9852 17.1977C10.6643 17.109 10.1359 16.8168 10.1892 16.2803C10.2533 15.629 10.977 15.4679 11.0084 15.4624C11.119 15.4379 11.2282 15.5102 11.2514 15.6208C11.2746 15.7314 11.2036 15.8406 11.093 15.8638C11.0889 15.8638 10.6302 15.9703 10.596 16.3212C10.5633 16.6516 11.0889 16.8032 11.0944 16.8045C11.2036 16.8346 11.2664 16.9479 11.2364 17.0571C11.2104 17.1472 11.1285 17.2073 11.0398 17.2073V17.2046ZM14.8695 14.0316C14.8176 14.0316 14.7643 14.0111 14.7247 13.9715C14.6455 13.891 14.6455 13.7613 14.7247 13.6821C15.0033 13.4049 15.1425 13.0991 15.1384 12.7741C15.1302 12.1229 14.5636 11.5795 14.5582 11.574C14.4762 11.4962 14.4721 11.3665 14.55 11.2846C14.6278 11.2027 14.7561 11.1986 14.8394 11.2764C14.8681 11.3037 15.5357 11.9399 15.548 12.766C15.5548 13.2069 15.3746 13.6138 15.0142 13.9729C14.9746 14.0125 14.9213 14.033 14.8695 14.033V14.0316Z" fill="#D97904" stroke="#D97904" stroke-width="0.1"/>
</g>
<defs>
<clipPath id="clip0_1823_1646">
<rect width="24" height="24" fill="white"/>
</clipPath>
</defs>
</svg>
