<svg width="24" height="24" viewBox="0 0 24 24" fill="none" xmlns="http://www.w3.org/2000/svg">
<rect width="24" height="24" fill="white"/>
<path d="M20.5466 7.64032V17.8008C20.5466 18.4049 20.2531 18.6985 19.6489 18.6985C17.1027 18.6985 14.5589 18.6985 12.0127 18.6985H4.41555C3.78205 18.6985 3.49832 18.4147 3.49832 17.7812V7.64032C3.49832 7.01904 3.78694 6.73042 4.40577 6.73042H19.6367C20.2555 6.73042 20.5441 7.01904 20.5441 7.64032M10.4742 6.24368C10.8411 5.82542 11.3987 5.57838 12.0053 5.57104H12.0273C12.6388 5.57104 13.1916 5.81319 13.5781 6.24368H10.4742ZM14.7375 2.79489C14.7375 2.71417 14.7668 2.64079 14.8206 2.58698C14.8744 2.53317 14.9527 2.50137 15.0359 2.50137H15.0383C15.1239 2.50137 15.1997 2.53317 15.2536 2.58943C15.3049 2.64324 15.3343 2.71906 15.3318 2.80223C15.3318 2.88294 15.2976 2.95877 15.2389 3.01502C15.1802 3.07128 15.1068 3.09819 15.0261 3.09574C14.8695 3.09085 14.7375 2.95388 14.7375 2.79733M10.073 4.13527C10.073 4.21599 10.0412 4.28936 9.98498 4.34562C9.92872 4.40188 9.85045 4.43367 9.76973 4.43123C9.6083 4.42878 9.47867 4.29915 9.47622 4.14016C9.47622 4.06189 9.50557 3.98607 9.56183 3.92736C9.61808 3.86866 9.69636 3.83442 9.77463 3.83442C9.8529 3.83442 9.93117 3.86621 9.98742 3.92247C10.0437 3.97873 10.073 4.05455 10.073 4.13527ZM7.03027 19.1828C7.00337 19.2659 6.9789 19.3442 6.93977 19.4078C6.92998 19.4249 6.87373 19.4543 6.82726 19.4567C6.69028 19.4665 6.54597 19.464 6.409 19.4616H6.28426C6.19131 19.4616 6.1375 19.4543 6.12527 19.4469C6.11549 19.4322 6.11059 19.3809 6.11059 19.2879V19.1803H7.03027V19.1828ZM17.9172 19.442C17.8976 19.4616 17.8512 19.4738 17.7851 19.4689C17.6286 19.4616 17.4622 19.4543 17.2984 19.4689C17.1492 19.4836 17.0856 19.4371 17.0562 19.2928C17.0489 19.2561 17.0367 19.2194 17.0244 19.1828H17.9343C17.9343 19.2292 17.9343 19.2757 17.9368 19.3197C17.9392 19.3613 17.9368 19.4151 17.9172 19.4396M21.0236 7.50823C21.0138 6.98969 20.7814 6.61057 20.3534 6.41C20.1528 6.31706 19.8935 6.26325 19.6245 6.2608C18.4577 6.25346 17.2715 6.25346 16.1268 6.25346C15.5397 6.25346 14.9527 6.25346 14.3632 6.25346C14.236 6.25346 14.2042 6.23634 14.1969 6.229C13.9841 6.02354 13.7835 5.81319 13.5707 5.59061L13.424 5.43896L13.6343 5.15523C14.0159 4.63669 14.4121 4.09858 14.8059 3.57025C14.8182 3.56292 14.8671 3.55558 14.9038 3.56047C15.1239 3.59471 15.3489 3.53357 15.5202 3.39659C15.6865 3.26451 15.7868 3.07862 15.8039 2.87071C15.821 2.64324 15.7525 2.43044 15.6058 2.27146C15.4615 2.11247 15.256 2.02441 15.0334 2.02441C14.8084 2.02441 14.5931 2.11981 14.4488 2.28613C14.3094 2.44512 14.2434 2.64813 14.2703 2.85848C14.285 2.97344 14.3265 3.08106 14.3755 3.19358C14.3901 3.22782 14.4048 3.26206 14.417 3.29875L12.9641 5.26774C12.0249 5.01581 11.9491 5.02315 10.9805 5.31666C10.9805 5.31666 10.978 5.31666 10.9756 5.31666C10.9634 5.31666 10.9438 5.31422 10.9413 5.31422C10.7946 5.12588 10.6527 4.9302 10.5133 4.74186L10.4057 4.59755C10.6478 4.13527 10.572 3.7219 10.1929 3.48465C9.90671 3.30609 9.51535 3.33544 9.26342 3.56047C9.00904 3.7855 8.93322 4.14505 9.07264 4.45569C9.21206 4.77366 9.53248 4.94977 9.88469 4.90819C9.91405 4.90574 9.99721 4.89596 10.0315 4.90085C10.1782 5.08185 10.3201 5.27508 10.4204 5.41695C10.435 5.43651 10.4497 5.45853 10.4644 5.47565C10.4179 5.53435 10.3714 5.59061 10.325 5.64687C10.1855 5.81808 10.051 5.98196 9.92872 6.15318C9.86757 6.23879 9.81621 6.2608 9.6988 6.26325C8.31929 6.2608 6.93977 6.26325 5.56025 6.26325H4.4767C4.39109 6.26325 4.30059 6.26325 4.21254 6.27058C3.51544 6.32195 3.02869 6.83804 3.02625 7.5278C3.0238 10.6537 3.0238 14.0536 3.02625 17.9255C3.02625 18.427 3.26106 18.8183 3.68666 19.0311C3.90435 19.1412 4.15873 19.173 4.33483 19.1803C4.66259 19.195 4.98301 19.1925 5.323 19.1901C5.42573 19.1901 5.5309 19.1901 5.63608 19.1901C5.63608 19.2512 5.63608 19.3075 5.63608 19.3638C5.64342 19.7453 5.84643 19.9483 6.22311 19.9557C6.34051 19.9557 6.45792 19.9557 6.57288 19.9557C6.66827 19.9557 6.76122 19.9557 6.85661 19.9557C7.11832 19.9557 7.30666 19.826 7.40206 19.5717L7.42162 19.5203C7.44853 19.4543 7.47543 19.3858 7.48766 19.3124C7.50478 19.217 7.53169 19.1876 7.67845 19.1876C10.0266 19.1925 12.3747 19.1925 14.7228 19.1925H16.1072C16.3697 19.1925 16.5491 19.3181 16.6453 19.5692C16.7456 19.8334 16.9315 19.9679 17.2054 19.9606C17.2984 19.9606 17.3913 19.9606 17.4843 19.9606C17.5332 19.9606 17.5845 19.9606 17.6335 19.9606C17.7093 19.9606 17.7827 19.9606 17.8585 19.9581C18.1936 19.9483 18.399 19.738 18.4088 19.3956C18.4088 19.332 18.4088 19.2684 18.4088 19.195H19.6391C20.5172 19.195 21.0211 18.6862 21.0211 17.8008V8.93667C21.0211 8.7948 21.0211 8.65294 21.0211 8.51107C21.0211 8.18087 21.0235 7.84088 21.0187 7.50579" fill="#D97904"/>
<path d="M17.636 19.9728H17.4868C17.3938 19.9728 17.3009 19.9728 17.2079 19.9728C17.2006 19.9728 17.1932 19.9728 17.1859 19.9728C16.9168 19.9728 16.7285 19.8359 16.6258 19.5668C16.5328 19.3255 16.3608 19.2048 16.1097 19.2048H13.9279C11.8806 19.2048 9.76244 19.2048 7.68094 19.1999C7.54152 19.1999 7.52929 19.2268 7.51461 19.3051C7.49994 19.3809 7.47303 19.447 7.44857 19.513L7.42656 19.5693C7.32627 19.8285 7.1306 19.968 6.8591 19.968C6.78817 19.968 6.71723 19.968 6.6463 19.968H6.57537C6.45796 19.968 6.343 19.968 6.2256 19.968C5.83424 19.9631 5.62389 19.7503 5.61411 19.354C5.61411 19.3051 5.61411 19.2562 5.61411 19.2024H5.31326C4.97572 19.2073 4.65774 19.2097 4.33488 19.195C4.15877 19.1877 3.90194 19.1534 3.67692 19.0434C3.24154 18.8257 3.00183 18.427 3.00183 17.9158C2.99939 14.0439 2.99939 10.644 3.00183 7.51806C3.00183 6.81608 3.49836 6.2902 4.20769 6.23883C4.29819 6.23149 4.38624 6.23149 4.4743 6.23149H6.24761C7.39721 6.23149 8.5468 6.23149 9.6964 6.23149C9.80891 6.22905 9.85294 6.20703 9.90675 6.13121C10.0266 5.96489 10.1538 5.80834 10.2908 5.64202L10.3054 5.6249C10.3348 5.58821 10.3641 5.55152 10.3935 5.51483L10.4326 5.46836C10.4228 5.45124 10.4131 5.43901 10.4008 5.42433C10.3201 5.31182 10.1709 5.10636 10.0168 4.91802C9.98991 4.91802 9.93366 4.91802 9.88718 4.92536C9.52274 4.96938 9.19498 4.78594 9.05067 4.46063C8.9088 4.14021 8.98707 3.76842 9.24879 3.5385C9.50806 3.30858 9.9092 3.27434 10.2052 3.46023C10.5892 3.69994 10.6723 4.12308 10.4326 4.59026L10.55 4.74925C10.6797 4.92536 10.8142 5.1088 10.9512 5.28736C10.9585 5.28736 10.9658 5.28736 10.9732 5.28736C11.9516 4.9914 12.0298 4.98651 12.952 5.23599L14.3877 3.29146C14.3804 3.27434 14.3731 3.25722 14.3682 3.2401L14.351 3.19852C14.307 3.09089 14.2605 2.98083 14.2459 2.85853C14.2214 2.64328 14.285 2.43293 14.4318 2.26905C14.5834 2.09784 14.8035 2 15.0359 2C15.2683 2 15.4786 2.0905 15.6278 2.25682C15.7795 2.4207 15.8504 2.64084 15.8333 2.8732C15.8162 3.086 15.711 3.27923 15.5398 3.41621C15.3612 3.55807 15.1289 3.61922 14.9038 3.58498C14.872 3.58008 14.8353 3.58498 14.8231 3.58987C14.4293 4.11575 14.0306 4.65875 13.654 5.16995L13.4558 5.43901L13.5879 5.57598C13.7885 5.78633 13.9988 6.00402 14.2141 6.21193C14.2141 6.21193 14.2385 6.22905 14.3657 6.22905C14.9527 6.22905 15.5422 6.22905 16.1293 6.22905C17.2764 6.22905 18.4627 6.22905 19.627 6.23639C19.8985 6.23639 20.1602 6.2902 20.3656 6.38559C20.8035 6.59105 21.0407 6.97751 21.0505 7.50583C21.0554 7.84338 21.0554 8.18336 21.053 8.51112V8.93671V17.7862C21.053 18.6863 20.5417 19.1999 19.649 19.2024H18.4431V19.2244C18.4431 19.2806 18.4431 19.3296 18.4431 19.3809C18.4333 19.738 18.2181 19.9557 17.8708 19.968C17.8047 19.9704 17.7362 19.9728 17.6457 19.9728H17.636ZM17.3253 19.9239C17.3791 19.9239 17.4329 19.9239 17.4868 19.9239H17.636C17.7265 19.9239 17.7949 19.9239 17.861 19.9215C18.1839 19.9117 18.3795 19.7087 18.3893 19.3809C18.3893 19.3296 18.3893 19.2806 18.3893 19.2244V19.1583H18.4113H19.6416C20.5051 19.1583 20.9991 18.6569 20.9991 17.7886V8.51112C20.9991 8.18336 21.004 7.84338 20.9991 7.50828C20.9894 6.99952 20.7619 6.62774 20.3412 6.42962C20.1431 6.33667 19.8862 6.2853 19.6221 6.28286C18.4553 6.27552 17.2691 6.27552 16.1244 6.27552C15.5373 6.27552 14.9503 6.27552 14.3608 6.27552C14.2605 6.27552 14.1994 6.26574 14.1774 6.24372C13.9621 6.03582 13.7518 5.81568 13.5512 5.60533L13.3922 5.43901L13.6124 5.13815C13.989 4.6245 14.3902 4.0815 14.784 3.55318L14.7889 3.54829C14.8084 3.53606 14.8623 3.52872 14.9038 3.53361C15.1166 3.56785 15.3343 3.50915 15.5031 3.37462C15.6645 3.24743 15.7624 3.06643 15.7795 2.86342C15.7966 2.64328 15.7281 2.43538 15.5862 2.28128C15.4468 2.12719 15.2487 2.04158 15.031 2.04158C14.8133 2.04158 14.603 2.13453 14.4611 2.29596C14.3241 2.45005 14.263 2.64573 14.2875 2.84874C14.3021 2.9637 14.3462 3.07133 14.3902 3.1765L14.4073 3.21808C14.4171 3.2401 14.4244 3.25966 14.4318 3.28168L14.4367 3.29391L14.4293 3.30369L12.9691 5.28491L12.9544 5.28002C12.0298 5.03053 11.9565 5.03298 10.983 5.32649H10.9707C10.9707 5.32649 10.9463 5.32649 10.9365 5.32649H10.9243L10.9169 5.31671C10.7775 5.13815 10.6405 4.95226 10.5085 4.77126L10.3739 4.58782L10.3813 4.57559C10.6161 4.12553 10.5403 3.72195 10.1783 3.49203C9.89941 3.31837 9.52274 3.34772 9.27814 3.56541C9.03355 3.7831 8.95772 4.13287 9.09225 4.43372C9.22922 4.74191 9.53741 4.91313 9.87985 4.87155C9.90675 4.8691 9.99481 4.85687 10.0339 4.86421H10.0413L10.0462 4.87155C10.2027 5.06233 10.3544 5.27513 10.4375 5.38764C10.4473 5.40232 10.4571 5.41699 10.4669 5.42922L10.4913 5.46102L10.4302 5.53684C10.4008 5.57353 10.3715 5.61022 10.3421 5.64691L10.3275 5.66403C10.1929 5.83036 10.0633 5.9869 9.94589 6.15078C9.88229 6.23883 9.82359 6.26574 9.69885 6.27063C8.54925 6.27063 7.39965 6.27063 6.25006 6.27063H4.47674C4.39113 6.27063 4.30308 6.27063 4.21502 6.27797C3.53016 6.32689 3.0532 6.83564 3.05075 7.51317C3.04831 10.6391 3.04831 14.0414 3.05075 17.9109C3.05075 18.4025 3.28067 18.7866 3.69893 18.9969C3.91417 19.1045 4.1661 19.1363 4.33732 19.1437C4.66019 19.1583 4.97816 19.1559 5.31326 19.151H5.66058V19.173C5.66058 19.2342 5.66058 19.2904 5.66058 19.3467C5.66792 19.7136 5.86359 19.9092 6.2256 19.9141C6.343 19.9141 6.46041 19.9141 6.57537 19.9141H6.6463C6.71723 19.9141 6.78817 19.9141 6.8591 19.9141C7.11348 19.9141 7.28959 19.7894 7.38253 19.5448L7.4021 19.4934C7.42901 19.4249 7.45346 19.3589 7.46814 19.288C7.49015 19.173 7.53418 19.1437 7.68094 19.1437C9.76244 19.1486 11.8806 19.1486 13.9279 19.1486H16.1097C16.5108 19.1486 16.5231 19.1559 16.6698 19.5399C16.7676 19.7992 16.9438 19.9215 17.2079 19.9166C17.2471 19.9166 17.2862 19.9166 17.3278 19.9166L17.3253 19.9239ZM17.2519 19.4959C17.1223 19.4959 17.0612 19.4372 17.0318 19.3002C17.0245 19.266 17.0147 19.2317 17 19.195L16.9878 19.1632H17.9564V19.1877C17.9564 19.2317 17.9564 19.2782 17.9564 19.3247C17.9613 19.3711 17.9588 19.4298 17.9295 19.4616C17.8977 19.4959 17.8316 19.4983 17.7803 19.4959C17.6164 19.4885 17.455 19.4812 17.296 19.4959C17.2788 19.4959 17.2642 19.4959 17.2495 19.4959H17.2519ZM17.0563 19.2073C17.066 19.2366 17.0734 19.2611 17.0783 19.288C17.1052 19.4201 17.1565 19.4592 17.2935 19.4445C17.455 19.4274 17.6164 19.4347 17.7852 19.4445C17.8512 19.447 17.8879 19.4372 17.8977 19.4249C17.9099 19.4127 17.9172 19.3711 17.9123 19.3247C17.9099 19.2855 17.9099 19.2464 17.9099 19.2073H17.0563ZM6.5876 19.491C6.5289 19.491 6.46775 19.491 6.41149 19.491H6.28674C6.13999 19.4885 6.12287 19.4763 6.11553 19.4714L6.11064 19.4665C6.10085 19.4519 6.09352 19.4225 6.09107 19.2953V19.1632H7.067L7.05722 19.1926C7.03276 19.2733 7.00585 19.354 6.96427 19.4225C6.9496 19.447 6.886 19.4812 6.83464 19.4837C6.75392 19.4885 6.67321 19.491 6.59004 19.491H6.5876ZM6.14488 19.4323C6.14488 19.4323 6.18891 19.4396 6.28674 19.4421H6.41149C6.54846 19.4445 6.69277 19.447 6.82975 19.4372C6.87133 19.4347 6.9178 19.4078 6.92269 19.398C6.95449 19.3418 6.97895 19.2757 7.00096 19.2073H6.13754V19.2904C6.13754 19.3858 6.14488 19.4201 6.14733 19.4323H6.14488ZM12.0152 18.723H4.41804C3.76742 18.723 3.47879 18.4319 3.47879 17.7813V7.64036C3.47879 7.00441 3.77475 6.70845 4.4107 6.70845H19.6416C20.2751 6.70845 20.5711 7.00441 20.5711 7.64281V17.8033C20.5711 18.4221 20.2702 18.723 19.6514 18.723C17.1052 18.723 14.5614 18.723 12.0152 18.723ZM4.40826 6.75493C3.80411 6.75493 3.52282 7.03621 3.52282 7.64036V17.7813C3.52282 18.4001 3.79921 18.6765 4.41559 18.6765H12.0127C14.5565 18.6765 17.1027 18.6765 19.649 18.6765C20.2384 18.6765 20.5222 18.3903 20.5222 17.8033V7.64036C20.5222 7.03621 20.2409 6.75248 19.6392 6.75248H4.40826V6.75493ZM13.6295 6.26818H10.4228L10.4571 6.22905C10.8313 5.80345 11.3939 5.55641 12.0054 5.54907H12.0274C12.6462 5.54907 13.2014 5.79122 13.5952 6.22905L13.6295 6.26818ZM10.528 6.22171H13.5268C13.1452 5.81813 12.6169 5.59555 12.0298 5.59555H12.0078C11.4306 5.60044 10.8949 5.82791 10.5305 6.22171H10.528ZM9.77956 4.45329C9.77956 4.45329 9.77223 4.45329 9.76733 4.45329C9.59123 4.4484 9.45425 4.31142 9.45181 4.13776C9.45181 4.0546 9.4836 3.97388 9.54475 3.91029C9.6059 3.84669 9.68906 3.81 9.77467 3.81C9.86028 3.81 9.94344 3.84425 10.0046 3.9054C10.0633 3.96654 10.0975 4.04726 10.0975 4.13531C10.0975 4.22092 10.0633 4.30164 10.0021 4.36034C9.941 4.41904 9.86272 4.45084 9.77956 4.45084V4.45329ZM9.77467 3.85648C9.70374 3.85648 9.63036 3.88827 9.579 3.94208C9.52763 3.9959 9.49828 4.06683 9.50072 4.13776C9.50072 4.28452 9.62302 4.40437 9.77222 4.40682C9.8456 4.40682 9.91654 4.38236 9.97035 4.32854C10.0217 4.27718 10.0511 4.20869 10.0511 4.13531C10.0511 4.05949 10.0242 3.98856 9.97279 3.93719C9.92143 3.88583 9.8505 3.85648 9.77712 3.85648H9.77467ZM15.0335 3.11535C15.0335 3.11535 15.0286 3.11535 15.0237 3.11535C14.8549 3.11046 14.713 2.9637 14.713 2.79493C14.713 2.70933 14.7448 2.62861 14.8035 2.56991C14.8647 2.50876 14.9454 2.47696 15.0359 2.47696C15.1313 2.47696 15.212 2.5112 15.2707 2.57235C15.327 2.63106 15.3563 2.71177 15.3563 2.80227C15.3563 2.88788 15.3196 2.97104 15.256 3.02975C15.1949 3.08845 15.1191 3.1178 15.0359 3.1178L15.0335 3.11535ZM15.0384 2.52343C14.9576 2.52343 14.8892 2.55278 14.8378 2.60415C14.7889 2.65307 14.762 2.72156 14.762 2.79738C14.762 2.94169 14.8843 3.06888 15.0286 3.07377C15.1044 3.07377 15.1704 3.04931 15.2267 2.99795C15.2805 2.94658 15.3099 2.8781 15.3123 2.80227C15.3123 2.724 15.2878 2.65551 15.2414 2.6066C15.1925 2.55523 15.1215 2.52588 15.0432 2.52588L15.0384 2.52343Z" fill="#D97904"/>
<path d="M4.496 17.4513V7.98548C4.496 7.81915 4.57998 7.73599 4.74793 7.73599C5.55754 7.73599 6.3696 7.73599 7.17921 7.73599C7.98882 7.73599 8.79353 7.73599 9.6007 7.73599H14.4461C16.058 7.73599 17.6723 7.73599 19.2842 7.73599C19.4603 7.73599 19.5484 7.8216 19.5484 7.99281C19.5484 11.1408 19.5484 14.2887 19.5484 17.4366C19.5484 17.6127 19.4611 17.7008 19.2867 17.7008H4.75038C4.58079 17.7008 4.496 17.6168 4.496 17.4489M19.2818 7.26147H4.74549C4.21716 7.26147 4.02148 7.4596 4.02148 7.99526V17.4391C4.02148 17.9723 4.22939 18.1802 4.76505 18.1802H19.2818C19.8248 18.1802 20.0253 17.9796 20.0253 17.4391C20.0253 14.2911 20.0253 11.1432 20.0253 7.99526C20.0253 7.45226 19.8321 7.26147 19.2842 7.26147" fill="#D97904"/>
<path d="M19.2794 18.2045H4.76265C4.21721 18.2045 3.99707 17.9819 3.99707 17.4389V7.99506C3.99707 7.44961 4.20743 7.23926 4.74553 7.23926H19.2818C19.8395 7.23926 20.0474 7.44472 20.0474 7.9975C20.0474 11.1454 20.0474 14.2934 20.0474 17.4413C20.0474 17.9917 19.8322 18.2045 19.2794 18.2045ZM4.74553 7.28573C4.22699 7.28573 4.04354 7.47162 4.04354 7.99506V17.4389C4.04354 17.9623 4.23922 18.158 4.76265 18.158H19.2794C19.8126 18.158 20.0009 17.9696 20.0009 17.4413C20.0009 14.2934 20.0009 11.1454 20.0009 7.9975C20.0009 7.46673 19.8199 7.28573 19.2818 7.28573H4.74553ZM19.2867 17.725H4.75042C4.48137 17.725 4.47159 17.7153 4.47159 17.4511V7.98527C4.47159 7.72356 4.48137 7.71133 4.74798 7.71133C6.36475 7.71133 7.98397 7.71133 9.60074 7.71133H14.4462C16.0581 7.71133 17.6724 7.71133 19.2843 7.71133C19.5631 7.71133 19.5729 7.72111 19.5729 7.99261C19.5729 11.1405 19.5729 14.2885 19.5729 17.4364C19.5729 17.7128 19.5631 17.7226 19.2867 17.7226V17.725ZM7.17925 7.76025C6.36964 7.76025 5.55759 7.76025 4.74798 7.76025C4.5947 7.76025 4.51806 7.83607 4.51806 7.98772V17.4511C4.51806 17.6028 4.59551 17.6786 4.75042 17.6786H19.2867C19.4465 17.6786 19.5264 17.5987 19.5264 17.4389C19.5264 14.2909 19.5264 11.143 19.5264 7.99506C19.5264 7.84015 19.4457 7.76269 19.2843 7.76269C17.6724 7.76269 16.0581 7.76269 14.4462 7.76269H9.60074C8.79358 7.76269 7.98642 7.76269 7.17925 7.76269V7.76025Z" fill="#D97904"/>
<path d="M5.79971 10.771C6.05164 9.90512 6.62155 9.3719 7.54856 9.13464C8.38018 8.92184 9.26317 8.81667 10.222 8.81667C10.5106 8.81667 10.8041 8.82645 11.1074 8.84602C11.917 8.89494 12.6312 9.02702 13.2892 9.2496C13.9521 9.47218 14.385 9.89778 14.6125 10.546C15.0772 11.879 15.1261 13.2487 14.7568 14.6185C14.5513 15.3743 14.0768 15.8537 13.3014 16.086C12.4111 16.3502 11.4401 16.4798 10.2464 16.4872C9.19713 16.4798 8.25055 16.3649 7.35533 16.135C6.4381 15.9001 5.8902 15.34 5.6823 14.4252C5.40835 13.2169 5.44749 11.9866 5.79971 10.7734M6.99822 16.5165C8.05732 16.8467 9.12131 16.9397 9.82574 16.9568H9.97739C11.1979 16.9568 12.1347 16.8614 13.0911 16.6388C14.3165 16.3551 15.0332 15.658 15.2851 14.5035C15.5762 13.168 15.5224 11.8399 15.1261 10.5557C14.8375 9.62383 14.2187 9.01234 13.2819 8.73595C12.5701 8.5256 11.8241 8.39841 11.0634 8.35683C9.65941 8.27856 8.44378 8.38863 7.34799 8.69682C6.36961 8.97321 5.75079 9.49909 5.46216 10.3087C4.93629 11.7787 4.88003 13.2805 5.29339 14.7726C5.53554 15.6507 6.11034 16.2377 7.00067 16.5141" fill="#D97904"/>
<path d="M9.97845 16.9815H9.82925C9.11992 16.962 8.05348 16.8715 6.99194 16.5388C6.09428 16.2575 5.51459 15.6681 5.26999 14.7802C4.85418 13.2808 4.91288 11.7741 5.43876 10.3016C5.73228 9.4847 6.35355 8.95393 7.33927 8.67509C8.4375 8.3669 9.65558 8.25683 11.062 8.3351C11.8251 8.37668 12.5736 8.50632 13.2854 8.71422C14.2295 8.99061 14.8532 9.60944 15.1443 10.5487C15.5405 11.8377 15.5943 13.1683 15.3033 14.5087C15.0489 15.6705 14.3249 16.3749 13.0921 16.6611C12.1333 16.8837 11.199 16.9791 9.97356 16.9791L9.97845 16.9815ZM7.00662 16.4948C8.06327 16.825 9.12481 16.9155 9.82925 16.9351H9.97845C11.2014 16.9351 12.1284 16.8397 13.0848 16.6171C14.3004 16.3358 15.0122 15.6436 15.2617 14.5013C15.5503 13.1707 15.499 11.845 15.1027 10.5658C14.819 9.64124 14.2026 9.03464 13.2756 8.76314C12.5663 8.55524 11.8227 8.42805 11.062 8.38402C9.66047 8.30575 8.44728 8.41582 7.35394 8.72156C6.3829 8.99551 5.77141 9.51649 5.48279 10.3188C4.95936 11.7839 4.90065 13.2808 5.31402 14.7704C5.55617 15.6412 6.12363 16.2208 7.00417 16.4948H7.00662ZM10.2451 16.507C9.1933 16.4997 8.24672 16.3847 7.34905 16.1548C6.42204 15.9175 5.86925 15.3525 5.6589 14.428C5.38495 13.2148 5.42409 11.982 5.7763 10.7639C6.03068 9.89072 6.60793 9.35017 7.53984 9.11047C8.38124 8.89522 9.25689 8.79005 10.2182 8.79005C10.497 8.79005 10.7954 8.79983 11.106 8.8194C11.9181 8.87076 12.6347 9.00284 13.2952 9.22298C13.9653 9.44801 14.4007 9.87605 14.6331 10.534C15.1003 11.8719 15.1492 13.2466 14.7798 14.6212C14.5719 15.3843 14.0925 15.8711 13.3098 16.1059C12.4171 16.3725 11.4436 16.4997 10.2475 16.507H10.2451ZM5.82278 10.7762C5.47301 11.9869 5.43387 13.2123 5.70537 14.4157C5.91083 15.3207 6.45138 15.8735 7.36128 16.1083C8.2565 16.3382 9.19819 16.4532 10.2451 16.4581C11.4362 16.4508 12.4048 16.3236 13.2952 16.0594C14.0607 15.8295 14.5328 15.355 14.7358 14.609C15.1027 13.2441 15.0538 11.8793 14.5915 10.5511C14.3665 9.90785 13.9384 9.48714 13.2829 9.26701C12.6274 9.04687 11.9156 8.91479 11.106 8.86587C10.7978 8.8463 10.4994 8.83652 10.223 8.83652C9.26423 8.83652 8.39103 8.9417 7.55451 9.15449C6.63728 9.3893 6.07226 9.92008 5.82278 10.7762Z" fill="#D97904"/>
<path d="M18.3083 10.3749C18.2985 10.2746 18.301 10.1743 18.3132 10.0813C18.323 10.1792 18.3205 10.277 18.3083 10.3749ZM18.7486 10.6904C18.7486 10.6659 18.751 10.6439 18.7535 10.6195C18.7681 10.4091 18.7828 10.1914 18.7755 9.97372C18.7682 9.81229 18.7266 9.67531 18.6556 9.57258C18.8195 9.66553 18.9369 9.82696 18.9834 10.0349C19.0396 10.2844 18.9467 10.5289 18.7486 10.6879M17.9512 9.58237C17.8901 9.67287 17.8485 9.79761 17.8411 9.9566C17.8289 10.1718 17.8436 10.392 17.8607 10.6023C17.8607 10.6292 17.8631 10.6586 17.8656 10.6855C17.6773 10.5338 17.5843 10.2892 17.6332 10.0422C17.6724 9.84408 17.7922 9.6802 17.9536 9.58237M18.3034 11.3386H18.3108C18.6214 11.3386 18.9149 11.2163 19.1375 10.9912C19.3576 10.7687 19.4775 10.4751 19.475 10.1645C19.4701 9.52611 18.9491 9.00757 18.3132 9.00757C17.9952 9.00757 17.7017 9.12742 17.4816 9.35C17.2639 9.57014 17.1465 9.86365 17.1465 10.1767C17.1465 10.8127 17.6675 11.3337 18.3034 11.3361" fill="#D97904"/>
<path d="M18.3108 11.3609H18.3035C17.6553 11.356 17.1245 10.8252 17.1221 10.177C17.1221 9.8566 17.2419 9.5582 17.4645 9.33317C17.6871 9.10814 17.9904 8.9834 18.3132 8.9834C18.9614 8.9834 19.4922 9.51417 19.4971 10.1648C19.4971 10.4828 19.3772 10.7812 19.1522 11.0062C18.9272 11.2337 18.6288 11.3609 18.3108 11.3609ZM18.3035 11.3144H18.3108C18.6165 11.3144 18.9027 11.1945 19.1204 10.9744C19.3357 10.7567 19.4531 10.4705 19.4506 10.1648C19.4457 9.54108 18.9345 9.03232 18.3132 9.02987C18.0026 9.02987 17.7115 9.14972 17.4987 9.36741C17.286 9.58266 17.1685 9.87128 17.171 10.1795C17.171 10.8032 17.6822 11.3119 18.3059 11.3168L18.3035 11.3144ZM18.7217 10.7396L18.7291 10.6173C18.7437 10.4192 18.7584 10.1941 18.7511 9.97401C18.7437 9.82236 18.7046 9.68783 18.6361 9.5851L18.5774 9.50194L18.6655 9.5533C18.8367 9.65114 18.959 9.82236 19.0055 10.0327C19.0617 10.2871 18.9712 10.5415 18.7609 10.7102L18.7193 10.7445L18.7217 10.7396ZM18.7242 9.6487C18.7682 9.74164 18.7927 9.85171 18.7975 9.97156C18.8073 10.1941 18.7902 10.4216 18.7755 10.6197V10.6344C18.9394 10.4779 19.0079 10.2602 18.959 10.04C18.9223 9.87862 18.8391 9.74164 18.7217 9.64625L18.7242 9.6487ZM17.8925 10.7371L17.851 10.7029C17.6528 10.5415 17.5599 10.2871 17.6088 10.0376C17.6504 9.83459 17.7678 9.66582 17.939 9.56309L18.0271 9.50928L17.9708 9.59489C17.9072 9.69028 17.873 9.81258 17.8632 9.95689C17.851 10.1697 17.8656 10.3874 17.8828 10.5953L17.8925 10.7347V10.7371ZM17.8852 9.66093C17.7678 9.75876 17.6871 9.89329 17.6553 10.0498C17.6113 10.2651 17.6822 10.4828 17.8387 10.6344V10.6075C17.8216 10.3923 17.8069 10.1746 17.8192 9.95933C17.8265 9.84682 17.8485 9.74898 17.8852 9.66337V9.66093ZM18.3328 10.3776H18.2863C18.2766 10.2749 18.279 10.1721 18.2912 10.0792L18.3157 9.88106L18.3353 10.0792C18.345 10.1697 18.3426 10.2651 18.3304 10.3776H18.3328Z" fill="#D97904"/>
<path d="M18.3083 13.1342C18.2985 13.0314 18.2985 12.9262 18.3132 12.8309C18.3254 12.9336 18.3205 13.0314 18.3083 13.1342ZM18.7486 13.4423L18.7535 13.3372C18.7608 13.1219 18.7681 12.9018 18.773 12.6841C18.773 12.5936 18.7437 12.508 18.7119 12.4346C18.6948 12.3906 18.6728 12.3514 18.6507 12.3197C18.8293 12.4224 18.9565 12.6034 18.9932 12.8284C19.0299 13.0583 18.9222 13.3078 18.7486 13.4423ZM17.9047 12.4346C17.7702 12.7697 17.8216 13.1048 17.8729 13.4277V13.4423C17.6846 13.2956 17.5843 13.051 17.6308 12.804C17.6675 12.5985 17.7898 12.4297 17.961 12.3319C17.9414 12.3612 17.9243 12.3979 17.9072 12.4371M18.301 14.093H18.3108C18.6165 14.093 18.9076 13.9707 19.1302 13.7456C19.3552 13.5206 19.475 13.2247 19.4726 12.9165C19.4677 12.2781 18.9491 11.7546 18.3132 11.7546C17.9977 11.7546 17.7042 11.8769 17.484 12.0995C17.2663 12.3197 17.1465 12.6132 17.1465 12.9262C17.1465 13.5646 17.6675 14.0881 18.3034 14.093" fill="#D97904"/>
<path d="M18.3108 14.1148H18.301C17.6528 14.1099 17.1245 13.5767 17.1221 12.9261C17.1221 12.6081 17.2419 12.3072 17.467 12.0822C17.692 11.8547 17.9928 11.73 18.3132 11.73C18.9639 11.73 19.4946 12.2632 19.4971 12.9163C19.4971 13.2318 19.3748 13.5326 19.1473 13.7626C18.9223 13.99 18.6239 14.1172 18.3108 14.1172V14.1148ZM18.301 14.0683H18.3108C18.6117 14.0683 18.8954 13.9485 19.1131 13.7283C19.3332 13.5082 19.4506 13.2196 19.4506 12.9163C19.4457 12.2901 18.937 11.7789 18.3157 11.7765C18.0051 11.7765 17.7164 11.8963 17.5012 12.114C17.2859 12.3292 17.1685 12.6179 17.171 12.9261C17.171 13.5522 17.6797 14.0634 18.3035 14.0683H18.301ZM17.9072 13.4935L17.8607 13.4568C17.6577 13.3003 17.5623 13.0483 17.6064 12.7964C17.6431 12.591 17.7678 12.4124 17.9464 12.3072L18.0295 12.2583L17.9757 12.3415C17.9561 12.3708 17.939 12.4051 17.9243 12.4418C17.7923 12.772 17.8436 13.1022 17.8925 13.4226L17.9048 13.4935H17.9072ZM17.895 12.4026C17.7702 12.5029 17.6822 12.6472 17.6528 12.8062C17.6137 13.019 17.6871 13.2342 17.8436 13.381C17.7972 13.0704 17.7556 12.7499 17.8852 12.4246C17.8877 12.4173 17.8925 12.41 17.895 12.4002V12.4026ZM18.7242 13.4911L18.7315 13.337C18.7388 13.1364 18.7462 12.9065 18.7511 12.6839C18.7511 12.6007 18.7242 12.52 18.6924 12.4442C18.6752 12.4051 18.6581 12.3684 18.6337 12.3317L18.5774 12.2485L18.663 12.2974C18.8514 12.4051 18.981 12.5958 19.0177 12.8233C19.0544 13.0557 18.9492 13.3174 18.7633 13.4593L18.7242 13.4886V13.4911ZM18.7193 12.3928C18.7193 12.3928 18.7291 12.4148 18.734 12.4271C18.7657 12.5078 18.7975 12.5958 18.7951 12.6863C18.7902 12.9114 18.7829 13.1388 18.7755 13.3394V13.3908C18.9223 13.2538 19.003 13.0312 18.9712 12.8307C18.9419 12.6521 18.8514 12.4956 18.7193 12.3928ZM18.3059 13.3492L18.2839 13.1364C18.2741 13.0337 18.2741 12.9261 18.2888 12.8282L18.3132 12.6399L18.3353 12.8282C18.345 12.9236 18.345 13.0239 18.3304 13.1364L18.3059 13.3492Z" fill="#D97904"/>
<path d="M16.6336 17.2478C16.6899 17.2942 16.7535 17.348 16.8342 17.3505C17.0127 17.3578 17.1962 17.3578 17.3747 17.3578C17.4701 17.3578 17.5631 17.3578 17.6585 17.3578C17.7539 17.3578 17.8468 17.3578 17.9422 17.3578H18.2333C18.5072 17.3578 18.791 17.3603 19.0722 17.3529C19.1505 17.3505 19.2117 17.2991 19.2655 17.2551C19.2826 17.2404 19.2997 17.2257 19.3168 17.2135L19.4342 17.1352L19.3217 17.0496C19.3046 17.035 19.2875 17.0178 19.2704 17.0007C19.2165 16.9493 19.1554 16.8882 19.0698 16.8882C18.336 16.8784 17.5851 16.8784 16.8366 16.8882C16.7535 16.8882 16.6899 16.9445 16.6336 16.9958C16.6165 17.0105 16.5969 17.0276 16.5798 17.0398L16.46 17.1255L16.5823 17.2086C16.6018 17.2208 16.6189 17.2355 16.6361 17.2526" fill="#D97904"/>
<path d="M17.3743 17.3804C17.2251 17.3804 17.027 17.3804 16.8313 17.373C16.7433 17.373 16.6772 17.3168 16.6185 17.2679L16.6088 17.2581C16.5941 17.2458 16.5794 17.2336 16.5647 17.2238L16.4131 17.1235L16.5623 17.0184C16.577 17.0086 16.5916 16.9939 16.6063 16.9817L16.6137 16.9743C16.6699 16.9254 16.7384 16.8618 16.8313 16.8618C17.5896 16.852 18.3405 16.852 19.0645 16.8618C19.1574 16.8618 19.2235 16.9279 19.2797 16.9817C19.2944 16.9964 19.314 17.0159 19.3311 17.0282L19.4705 17.1333L19.3262 17.2312C19.3115 17.241 19.2993 17.2532 19.2846 17.263L19.2773 17.2703C19.2235 17.3143 19.1574 17.3706 19.0718 17.373C18.8077 17.3804 18.5386 17.3804 18.2793 17.3804H17.9442C17.8489 17.3804 17.7559 17.3804 17.6605 17.3804H17.3768H17.3743ZM16.6479 17.2287H16.6503C16.7042 17.2776 16.7604 17.3241 16.8338 17.3266C17.027 17.3339 17.2251 17.3339 17.3743 17.3339H17.6581C17.7535 17.3339 17.8464 17.3339 17.9418 17.3339H18.2769C18.5362 17.3339 18.8052 17.3363 19.0694 17.329C19.1403 17.3266 19.1966 17.2776 19.2479 17.2361L19.2553 17.2287C19.27 17.2165 19.2871 17.2043 19.3018 17.192L19.3923 17.1309L19.3042 17.0648C19.2846 17.0502 19.2651 17.0306 19.2504 17.0159C19.1966 16.9646 19.1403 16.9107 19.0669 16.9107C18.3429 16.901 17.592 16.901 16.8338 16.9107C16.758 16.9107 16.6993 16.9646 16.6455 17.011L16.6381 17.0184C16.6234 17.033 16.6063 17.0477 16.5916 17.0575L16.4987 17.1235L16.5941 17.1871C16.6112 17.1969 16.6259 17.2116 16.643 17.2238L16.6503 17.2312L16.6479 17.2287Z" fill="#D97904"/>
<path d="M16.8531 16.6757C17.5845 16.6757 18.3158 16.6757 19.0447 16.6757C19.1328 16.6757 19.2355 16.6659 19.3015 16.5901C19.3284 16.5583 19.3602 16.5021 19.348 16.4116C19.3309 16.2893 19.1425 16.2037 19.052 16.2012C18.7805 16.1914 18.5066 16.1939 18.24 16.1939H17.6848C17.4084 16.1939 17.132 16.1939 16.8482 16.1939C16.7577 16.1939 16.5376 16.1939 16.5352 16.4311C16.5352 16.5021 16.5547 16.5583 16.5987 16.5999C16.6721 16.6733 16.7798 16.6733 16.8531 16.6733" fill="#D97904"/>
<path d="M16.8532 16.6977C16.7773 16.6977 16.6624 16.6977 16.5841 16.6169C16.5376 16.5705 16.5156 16.5093 16.5156 16.431C16.5181 16.1718 16.7602 16.1718 16.8507 16.1718C17.1344 16.1718 17.4108 16.1718 17.6872 16.1718H18.2914C18.5409 16.1718 18.8001 16.1693 19.0545 16.1767C19.1548 16.1791 19.3529 16.2696 19.3725 16.4066C19.3847 16.5044 19.3529 16.568 19.3211 16.6023C19.2526 16.683 19.145 16.6952 19.0545 16.6952H19.0447C18.3158 16.6952 17.5845 16.6952 16.8532 16.6952V16.6977ZM16.8483 16.2183C16.7064 16.2183 16.5621 16.2427 16.5597 16.431C16.5597 16.4946 16.5792 16.546 16.6159 16.5827C16.682 16.6487 16.7847 16.6487 16.8532 16.6487C17.5845 16.6487 18.3158 16.6487 19.0447 16.6487C19.0472 16.6487 19.0496 16.6487 19.0545 16.6487C19.1377 16.6487 19.2282 16.639 19.2844 16.5729C19.3089 16.5436 19.3358 16.4946 19.326 16.4139C19.3113 16.3063 19.1377 16.228 19.0521 16.2256C18.7977 16.2158 18.5409 16.2183 18.2914 16.2183H17.6872C17.4108 16.2183 17.1344 16.2183 16.8507 16.2183H16.8483Z" fill="#D97904"/>
<path d="M19.2669 15.6142C19.218 15.5677 19.1544 15.509 19.0737 15.509C18.5551 15.4992 18.0293 15.5017 17.5205 15.5041H17.2784C17.1634 15.5041 17.0827 15.5335 17.0362 15.5922C17.0093 15.624 16.9824 15.6827 16.9995 15.7732C17.024 15.8857 17.183 15.9664 17.2759 15.9713C17.4129 15.9762 17.5523 15.9787 17.6917 15.9787C17.7724 15.9787 17.8507 15.9787 17.929 15.9787C18.088 15.9787 18.247 15.9787 18.4035 15.9787C18.6236 15.9787 18.8511 15.9811 19.0761 15.9713C19.1568 15.9689 19.2131 15.9151 19.2645 15.8661C19.2816 15.8515 19.2963 15.8343 19.3134 15.8246L19.4235 15.7414L19.3109 15.6607C19.2938 15.6485 19.2791 15.6338 19.262 15.6167" fill="#D97904"/>
<path d="M17.6952 16.0006C17.5435 16.0006 17.4065 15.9982 17.2794 15.9933C17.1766 15.9884 17.0079 15.9028 16.9809 15.778C16.9614 15.6802 16.9907 15.6142 17.0201 15.5775C17.0714 15.5114 17.1571 15.4796 17.2818 15.4796H17.5215C18.0303 15.4796 18.5561 15.4772 19.0771 15.4845C19.1676 15.4845 19.2337 15.5481 19.285 15.597L19.2973 15.6093C19.2973 15.6093 19.3193 15.6313 19.3315 15.6386L19.4685 15.7389L19.3315 15.8392C19.3193 15.849 19.307 15.8588 19.2948 15.871L19.285 15.8808C19.2337 15.9272 19.1725 15.9884 19.082 15.9908C18.857 16.0006 18.6295 16.0006 18.4094 15.9982C18.2504 15.9982 18.0939 15.9982 17.9349 15.9982C17.8566 15.9982 17.7759 15.9982 17.6976 15.9982L17.6952 16.0006ZM18.1061 15.5261C17.9104 15.5261 17.7147 15.5261 17.5215 15.5261H17.2794C17.1717 15.5261 17.0984 15.553 17.0543 15.6068C17.0299 15.6362 17.0054 15.6875 17.0225 15.7683C17.0445 15.8661 17.1913 15.9444 17.2794 15.9468C17.4065 15.9517 17.5411 15.9542 17.6927 15.9542C17.7734 15.9542 17.8517 15.9542 17.93 15.9542C18.089 15.9542 18.2479 15.9542 18.4069 15.9542C18.6271 15.9542 18.8521 15.9566 19.0771 15.9468C19.1505 15.9444 19.2043 15.893 19.2508 15.849L19.2606 15.8392C19.2752 15.827 19.2875 15.8147 19.3022 15.805L19.3878 15.7414L19.3022 15.6778C19.2899 15.668 19.2777 15.6557 19.263 15.6435L19.2508 15.6313C19.2043 15.5873 19.1456 15.5335 19.0722 15.531C18.7494 15.5261 18.4241 15.5237 18.1036 15.5237L18.1061 15.5261Z" fill="#D97904"/>
<path d="M17.0921 15.186C17.1484 15.2325 17.212 15.2839 17.2927 15.2863C17.5838 15.2912 17.8773 15.2936 18.1708 15.2936C18.4643 15.2936 18.7578 15.2936 19.0513 15.2863C19.1443 15.2863 19.3302 15.1958 19.3473 15.0735C19.3595 14.9855 19.3277 14.9292 19.3008 14.8974C19.2348 14.8216 19.1296 14.8142 19.044 14.8142C18.8483 14.8142 18.6502 14.8142 18.4521 14.8142H18.1561C18.0803 14.8142 18.0045 14.8142 17.9262 14.8142C17.7159 14.8142 17.4982 14.8118 17.2829 14.8216C17.1998 14.8265 17.1386 14.8827 17.0848 14.9316C17.0677 14.9488 17.0481 14.9634 17.031 14.9757L16.9111 15.0637L17.0359 15.1444C17.0554 15.1567 17.0726 15.1713 17.0921 15.1885" fill="#D97904"/>
<path d="M18.1718 15.3158C17.8612 15.3158 17.5726 15.3158 17.2913 15.3085C17.2008 15.306 17.1323 15.2473 17.0761 15.2009C17.0589 15.1837 17.0418 15.1715 17.0247 15.1593L16.873 15.059L17.0198 14.9514C17.0369 14.9391 17.0541 14.9245 17.0712 14.9073C17.125 14.8584 17.1935 14.7973 17.284 14.7924C17.4919 14.7826 17.6998 14.7826 17.9297 14.7851C18.0055 14.7851 18.0813 14.7851 18.1572 14.7851H18.4531C18.6513 14.7851 18.8469 14.7851 19.0451 14.7851C19.1356 14.7851 19.2481 14.7948 19.319 14.878C19.3508 14.9122 19.385 14.9758 19.3728 15.0712C19.3532 15.2106 19.1527 15.3036 19.0548 15.306C18.7784 15.3109 18.4825 15.3134 18.1743 15.3134L18.1718 15.3158ZM17.1079 15.1666C17.1592 15.2106 17.2204 15.2596 17.2938 15.262C17.575 15.2669 17.8612 15.2693 18.1718 15.2693C18.4825 15.2693 18.7736 15.2693 19.0524 15.262C19.1356 15.262 19.3092 15.1764 19.3263 15.0688C19.3361 14.9905 19.3092 14.9391 19.2848 14.9122C19.2261 14.8462 19.1307 14.8364 19.0451 14.8364C18.8494 14.8364 18.6513 14.8364 18.4531 14.8364H18.1572C18.0813 14.8364 18.0055 14.8364 17.9273 14.8364C17.6998 14.8364 17.4919 14.834 17.284 14.8438C17.2106 14.8486 17.1519 14.9 17.1005 14.9465C17.081 14.9636 17.0638 14.9807 17.0467 14.993L16.9538 15.0614L17.0492 15.1226C17.0687 15.1348 17.0883 15.1495 17.1054 15.1666L17.0932 15.1862L17.1079 15.1691V15.1666Z" fill="#D97904"/>
</svg>
