<svg width="24" height="24" viewBox="0 0 24 24" fill="none" xmlns="http://www.w3.org/2000/svg">
<rect width="24" height="24" fill="white"/>
<path d="M10.2844 18.4231C10.1037 18.4231 9.92665 18.4121 9.75144 18.3975C9.77881 18.3866 9.80802 18.372 9.83539 18.361C9.83539 18.361 9.84087 18.361 9.84087 18.3628V18.3574C10.3702 18.1292 11.0273 17.8025 11.7373 17.3553C13.557 16.2128 15.7162 14.2817 16.8989 11.1825C16.9446 11.4727 16.9756 11.7666 16.9774 12.0677C15.269 16.4464 10.8466 18.2132 10.2826 18.4231H10.2844ZM4.80148 8.65276C5.11359 8.20741 5.48593 7.80403 5.9039 7.44629C5.59544 13.9915 9.2422 16.3369 10.9196 17.0651C10.5198 17.2951 10.1475 17.4849 9.81714 17.6364C8.78043 17.1911 4.81425 15.0611 4.80148 8.65276ZM7.74553 12.1827C7.65062 12.4437 7.58309 12.6956 7.53564 12.9256C7.42247 12.6919 7.31844 12.4437 7.2217 12.1827C7.39692 12.1791 7.57214 12.1791 7.74553 12.1827ZM7.00815 11.5256C6.92784 11.2464 6.85848 10.9543 6.80008 10.6459C11.3795 10.2516 14.5097 11.9728 15.4716 12.5915C15.2855 12.9146 15.0883 13.2231 14.8821 13.5115C13.8016 12.9219 10.5947 11.3741 7.00998 11.5256H7.00815ZM13.515 13.5918C13.9111 13.7706 14.236 13.9331 14.4678 14.0554C13.6063 15.1286 12.6371 15.9463 11.7318 16.5577C12.2866 15.9609 13.1956 14.8366 13.515 13.5899V13.5918ZM11.991 12.9894C12.3012 13.0953 12.5951 13.2048 12.8652 13.3143C12.5714 14.6632 11.3941 15.9408 10.9634 16.3715C10.7644 16.2803 10.5454 16.1653 10.3099 16.0248C10.7589 15.5739 11.562 14.5901 11.9891 12.9894M8.84248 14.842C8.59243 14.5792 8.34785 14.2799 8.11605 13.9422C8.11788 13.7341 8.15255 13.0022 8.47379 12.2229C8.82971 12.2539 9.18015 12.2977 9.52146 12.3561C9.24038 13.4184 8.99397 14.3072 8.84248 14.842ZM10.2077 12.4875C10.5965 12.5715 10.9707 12.67 11.3248 12.7759C10.9123 14.3547 10.0964 15.2837 9.73136 15.6342C9.6255 15.5539 9.51963 15.4717 9.41195 15.3823C9.53059 14.9698 9.84087 13.871 10.2077 12.4875ZM16.2364 10.9744C16.0995 11.3285 15.9498 11.668 15.7892 11.9911C14.6631 11.2701 11.4361 9.56353 6.69422 9.98698C6.65771 9.70042 6.62668 9.40474 6.60843 9.09445C12.0074 7.90077 15.3639 10.2535 16.2364 10.9744ZM12.7083 17.9978C12.7083 17.9978 12.6937 17.9869 12.6845 17.9814C13.8983 17.2422 15.3767 16.0905 16.5266 14.4022C15.8476 16.054 14.4532 17.3608 12.7083 17.9978ZM16.3021 18.4614C15.2599 18.9579 14.2341 18.7863 13.4457 18.4267C15.9425 17.3134 17.682 14.9096 17.682 12.1225C17.682 10.1859 16.8442 8.43191 15.4935 7.16886L14.8164 7.88799C15.2143 8.05591 15.4753 8.20193 15.583 8.26764C16.0009 8.77869 16.335 9.34998 16.5741 9.9669C16.543 10.0764 16.5083 10.1823 16.4737 10.29C15.9316 9.86652 14.9514 9.22222 13.5625 8.74037L17.5067 4.55334C17.6345 4.41645 17.6235 4.20838 17.4794 4.08427C17.3352 3.96198 17.1143 3.97475 16.9865 4.10982L16.6379 4.47851C16.8916 4.42923 17.0906 4.40185 17.1107 4.47486C17.2567 5.0279 15.8841 5.27795 15.656 5.5207L12.8342 8.51769C11.2061 8.07234 9.11809 7.88069 6.5847 8.42095C6.58288 8.23661 6.5847 8.04679 6.59018 7.85332C9.47948 6.89143 11.8084 7.05022 13.3799 7.42439L13.9111 6.85858C12.2848 6.4041 9.79159 6.13945 6.62303 7.13966C6.62851 7.05753 6.63398 6.97722 6.63946 6.89326C7.69808 6.21793 8.97025 5.82186 10.3392 5.82186C11.7081 5.82186 12.8981 6.1942 13.9366 6.83303L14.4075 6.33109C13.2412 5.59189 11.8431 5.15931 10.3392 5.15931C6.29267 5.15749 3 8.28224 3 12.1225C3 13.8309 3.65525 15.3969 4.73395 16.6107L5.20667 16.1087C4.26852 15.0227 3.69905 13.6374 3.69905 12.1243C3.69905 11.323 3.86332 10.5601 4.1517 9.85374C4.3616 12.42 5.21397 14.258 6.19776 15.5539L3.47455 18.4578C3.34679 18.5946 3.35774 18.8027 3.50193 18.925C3.64612 19.0473 3.86697 19.0363 3.99474 18.8995L6.63398 16.0832C7.48453 17.0414 8.3734 17.6401 8.99945 17.9796C8.71472 18.0854 8.52125 18.1456 8.45371 18.1639C7.62142 17.9303 6.86031 17.5433 6.19959 17.0414L5.73233 17.5397C6.99355 18.507 8.59425 19.0893 10.3392 19.0893C11.1331 19.0893 11.8942 18.9652 12.6097 18.7443C13.2814 19.155 14.0936 19.4288 14.9441 19.4288C15.4954 19.4288 16.0593 19.3156 16.6124 19.0528C18.527 18.1438 20.8049 17.547 21.4528 18.1602L21.9475 17.6912C20.668 16.4792 17.0194 18.1183 16.3003 18.4596L16.3021 18.4614Z" fill="#D97904"/>
</svg>
