<svg width="24" height="24" viewBox="0 0 24 24" fill="none" xmlns="http://www.w3.org/2000/svg">
<rect width="24" height="24" fill="white"/>
<path d="M12.491 10.7915C12.1655 10.466 11.8378 10.1405 11.4969 9.79963C11.1277 10.2781 11.0731 10.8899 10.8306 11.4426C11.3222 11.3771 12.301 10.9838 12.491 10.7915ZM18.9145 4.39215C19.0652 4.23921 19.2138 4.08845 19.3602 3.9377C19.3886 3.9093 19.417 3.87871 19.4432 3.84594C19.6639 3.57502 19.6551 3.18612 19.4214 2.92831C19.1898 2.67268 18.8009 2.60495 18.5278 2.81033C18.3005 2.98074 18.1083 3.19704 17.9116 3.38494C18.2525 3.72796 18.5758 4.05131 18.9145 4.39215ZM17.4113 3.94863C15.6263 5.73145 13.8435 7.51647 12.0716 9.28837C12.384 9.60081 12.7095 9.92635 13.0132 10.2322C14.7917 8.45376 16.5789 6.66657 18.3552 4.89029C18.0449 4.58223 17.7216 4.25887 17.4113 3.94863ZM7.26054 8.77712V17.2412H18.2525V8.78368C18.2088 8.77931 18.176 8.77057 18.141 8.77057C17.3064 8.77057 16.4718 8.7662 15.6372 8.77494C15.5629 8.77494 15.4734 8.83174 15.4165 8.88855C14.6366 9.66198 13.8588 10.4398 13.0853 11.2176C12.8363 11.4688 12.5479 11.6502 12.2114 11.7572C11.8203 11.8818 11.4358 12.0303 11.0403 12.1418C10.6536 12.251 10.3062 12.4127 10.0418 12.7251C10.0309 12.7382 10.0178 12.7492 10.0025 12.7601C9.8321 12.8977 9.62891 12.8977 9.49345 12.7579C9.35799 12.6159 9.36454 12.4127 9.51748 12.251C9.60706 12.1571 9.71412 12.0828 9.79495 11.9823C9.88453 11.873 9.97848 11.7551 10.0265 11.624C10.1729 11.2285 10.3149 10.8287 10.4264 10.4223C10.5837 9.84332 10.8721 9.35392 11.3309 8.9672C11.3899 8.91695 11.4401 8.85796 11.5166 8.77712H7.25617H7.26054ZM13.6446 6.65783C13.5747 6.65346 13.5463 6.64909 13.5179 6.64909C10.6208 6.64909 7.72373 6.64909 4.82663 6.65346C4.64966 6.65346 4.45958 6.69715 4.30227 6.77144C3.85875 6.98337 3.70799 7.3679 3.70799 7.84201C3.71236 11.2853 3.70799 14.7286 3.70799 18.1741C3.70799 18.2222 3.70799 18.2681 3.71018 18.3161C3.7495 18.9541 4.17992 19.3714 4.82007 19.3736C9.63983 19.3736 14.4574 19.3758 19.2772 19.3692C19.4519 19.3692 19.6442 19.3255 19.8015 19.2491C20.2407 19.0328 20.3871 18.646 20.3871 18.1741C20.3827 14.7352 20.3871 11.2984 20.3849 7.85949C20.3849 7.77865 20.3805 7.69563 20.3739 7.6126C20.3324 7.12538 19.9654 6.71026 19.476 6.67749C18.921 6.63816 18.3595 6.65127 17.8024 6.65346C17.715 6.65346 17.6101 6.70152 17.5468 6.7627C17.2321 7.06202 16.9285 7.37445 16.6204 7.68252C16.5068 7.79613 16.3888 7.90756 16.2708 8.01898L16.2927 8.06268H16.4784C17.1535 8.06268 17.8308 8.06268 18.5059 8.06268C18.8467 8.06268 18.9691 8.18721 18.9713 8.53242C18.9713 8.5499 18.9713 8.56738 18.9713 8.58486C18.9713 11.5344 18.9713 14.4861 18.9713 17.4356C18.9713 17.5012 18.9713 17.5645 18.9647 17.6301C18.9494 17.8049 18.8533 17.9097 18.6851 17.9447C18.6042 17.96 18.5212 17.9622 18.4404 17.9622C14.6497 17.9622 10.859 17.9622 7.06828 17.9622C6.63568 17.9622 6.53954 17.8639 6.53954 17.4335V8.60015C6.53954 8.54116 6.53954 8.48217 6.54173 8.42318C6.55484 8.2178 6.66189 8.102 6.86727 8.07142C6.93718 8.06049 7.0071 8.06268 7.07701 8.06268C8.73968 8.06268 10.4045 8.06268 12.0672 8.0605C12.1437 8.0605 12.2442 8.05176 12.2944 8.00587C12.7401 7.57328 13.1771 7.12975 13.649 6.65783M21.0403 7.24118V18.7728C21.0294 18.7859 21.0163 18.799 21.0119 18.8143C20.7869 19.6052 20.0222 20.0815 19.24 20.0815C14.4443 20.0727 9.64857 20.0771 4.85285 20.0771C3.78009 20.0771 3.00666 19.3299 3.00447 18.2593C2.99792 14.7614 2.99792 11.2657 3.00884 7.76772C3.00884 7.49462 3.0722 7.19967 3.188 6.95278C3.51791 6.258 4.10563 5.9412 4.86377 5.9412C7.96624 5.9412 11.0709 5.9412 14.1734 5.9412C14.3066 5.9412 14.4006 5.90187 14.4945 5.80792C15.6001 4.69584 16.7187 3.5925 17.8177 2.47386C18.2306 2.05437 18.7244 1.91891 19.2662 2.04563C20.2516 2.27723 20.6536 3.51166 19.9872 4.27635C19.5328 4.79853 19.0193 5.26827 18.5343 5.76204C18.4884 5.81011 18.4425 5.86036 18.3705 5.93683C18.696 5.93683 18.9822 5.93683 19.2662 5.93683C19.7294 5.93683 20.1402 6.0854 20.4919 6.39128C20.7585 6.62069 20.9092 6.92001 21.036 7.23681" fill="#D97904"/>
<path d="M4.41997 13.0068C4.42215 12.6135 4.73458 12.3076 5.12786 12.3098C5.51676 12.312 5.83356 12.6332 5.827 13.0177C5.82263 13.4022 5.49709 13.7234 5.11475 13.719C4.72585 13.7147 4.4156 13.3979 4.41997 13.0068Z" fill="#D97904"/>
<path d="M4.76999 15.4737C4.76999 15.2574 4.76563 15.0389 4.76999 14.8226C4.77655 14.5823 4.90764 14.4381 5.11083 14.4337C5.3162 14.4293 5.46477 14.567 5.46914 14.8051C5.48007 15.2574 5.47788 15.7096 5.46914 16.1597C5.46477 16.3913 5.30965 16.5442 5.11738 16.5442C4.91419 16.5442 4.77655 16.3869 4.76562 16.1401C4.76562 16.1291 4.76562 16.116 4.76562 16.1051V15.4715" fill="#D97904"/>
<path d="M4.76951 10.5294C4.76951 10.3066 4.76515 10.0837 4.76951 9.86088C4.77607 9.63366 4.90934 9.49165 5.10598 9.48509C5.30043 9.47854 5.45992 9.614 5.46648 9.83685C5.47959 10.3066 5.47959 10.7763 5.46648 11.2439C5.45992 11.4689 5.3048 11.6 5.10598 11.5913C4.90716 11.5847 4.77825 11.4449 4.76951 11.2155C4.76296 10.9883 4.76951 10.7589 4.76951 10.5294Z" fill="#D97904"/>
<path d="M16.8472 15.8406V15.6286C16.8472 14.9229 16.8472 14.2194 16.8472 13.5137C16.8472 13.4329 16.8537 13.3498 16.8734 13.2712C16.9171 13.103 17.0547 13.0112 17.2295 13.0221C17.389 13.033 17.5223 13.1423 17.542 13.304C17.5573 13.4307 17.5529 13.5618 17.5529 13.6907C17.5529 14.4903 17.5529 15.2878 17.5529 16.0874C17.5529 16.4195 17.4262 16.5484 17.0984 16.5484C16.4517 16.5484 15.805 16.5506 15.1605 16.5484C14.8481 16.5484 14.6667 16.3343 14.7563 16.0809C14.8196 15.8995 14.9638 15.8406 15.143 15.8406C15.6368 15.8406 16.1306 15.8406 16.6221 15.8406H16.845" fill="#D97904"/>
<path d="M13.6722 16.5439C13.4886 16.5439 13.3248 16.3822 13.3204 16.1987C13.316 16.0064 13.4843 15.8426 13.6787 15.8447C13.8666 15.8491 14.0217 16.0064 14.0195 16.1965C14.0195 16.3822 13.8557 16.5439 13.6722 16.5439Z" fill="#D97904"/>
</svg>
