<svg width="24" height="24" viewBox="0 0 24 24" fill="none" xmlns="http://www.w3.org/2000/svg">
<rect width="24" height="24" fill="white"/>
<path d="M6.35725 6.8709H4.99882V7.31623H6.35725V6.8709ZM3.08285 8.30182C3.16915 8.12921 3.25546 7.9566 3.42807 7.78399C3.60068 7.61139 3.8268 7.44914 4.462 7.31623C4.462 7.17124 4.46027 7.02107 4.462 6.8709C4.46718 6.53604 4.6605 6.33754 4.99709 6.33408C5.45105 6.32891 5.90674 6.32891 6.36243 6.33408C6.68866 6.33754 6.88198 6.53258 6.89234 6.85881C6.89579 7.00381 6.89234 7.1488 6.89234 7.31623C7.27725 7.27998 7.54134 7.09356 7.7105 6.77769C7.87275 6.4739 8.01602 6.16147 8.17137 5.85596C8.38541 5.43824 8.72026 5.16552 9.17595 5.0516C9.31059 5.0188 9.45213 5.00327 9.59194 5.00327C11.161 4.99982 12.73 4.99809 14.299 5.00327C14.9532 5.00327 15.4365 5.29843 15.7385 5.88185C15.8801 6.1563 16.0199 6.43074 16.158 6.70865C16.3651 7.12809 16.7017 7.33176 17.166 7.33176C17.8668 7.33176 18.5659 7.33176 19.2667 7.33176C20.273 7.33349 20.9185 7.98077 20.9185 8.98363C20.9185 11.7661 20.9185 14.5503 20.9185 17.3327C20.9185 18.3459 20.2678 18.9967 19.2563 18.9967C14.9394 18.9967 10.6241 18.9967 6.30719 18.9967C6.23642 18.9967 4.87454 19.0019 4.80894 18.9846C4.67604 18.9501 4.60009 18.8586 4.61045 18.7153C4.6208 18.5738 4.70365 18.4927 4.84347 18.4754C4.91251 18.4668 6.27267 18.4719 6.34171 18.4719H19.2391C19.9865 18.4719 20.3921 18.0629 20.3921 17.312C20.3921 14.5175 20.3921 11.7229 20.3921 8.9284C20.3921 8.40884 20.0987 8.01012 19.6223 7.89102C19.5049 7.86167 19.3806 7.85822 19.258 7.85822C18.5693 7.85477 17.8824 7.85477 17.1936 7.85822C16.4946 7.86167 15.9888 7.55616 15.6781 6.92786C15.547 6.66204 15.4123 6.39622 15.2777 6.13213C15.074 5.72995 14.7443 5.528 14.2938 5.528C12.73 5.528 11.1679 5.528 9.60402 5.528C9.15351 5.528 8.8221 5.7265 8.62015 6.13213C8.48724 6.39795 8.35434 6.66377 8.22488 6.93131C7.91936 7.55443 7.41707 7.85822 6.72663 7.85822C6.03275 7.85822 5.33885 7.85822 4.64496 7.85822C3.93727 7.85822 3.52473 8.27248 3.52473 8.97673V17.3431C3.52473 18.056 3.94245 18.4719 4.65705 18.4719C4.79168 18.4719 4.92632 18.4685 5.05923 18.4737C5.20767 18.4806 5.29743 18.5634 5.31124 18.7136C5.32505 18.8551 5.22839 18.9932 5.07994 18.9881C4.74335 18.9794 4.39468 18.9967 4.07536 18.9087C3.51783 18.755 3.17952 18.3477 3.03625 17.7832C3.0259 17.7453 3.01208 17.7073 3 17.6693V8.63841C3 8.63841 2.99654 8.47443 3.08285 8.30182Z" fill="#D97904" stroke="#D97904" stroke-width="0.25"/>
<path d="M11.9617 9.03718C9.80064 9.03028 8.03485 10.7909 8.02794 12.9606C8.02104 15.1286 9.77302 16.8926 11.9427 16.8995C14.1124 16.9064 15.873 15.1614 15.8851 12.9865C15.8972 10.8133 14.14 9.04236 11.9617 9.03546M11.9634 8.51245C14.4317 8.52281 16.4219 10.5251 16.4116 12.9865C16.3995 15.4548 14.3972 17.4415 11.9341 17.4277C9.47613 17.4139 7.49286 15.4116 7.50494 12.9571C7.51702 10.4975 9.51756 8.50382 11.9652 8.51418" fill="#D97904"/>
<path d="M11.9617 9.03718C9.80064 9.03028 8.03485 10.7909 8.02794 12.9606C8.02104 15.1286 9.77302 16.8926 11.9427 16.8995C14.1124 16.9064 15.873 15.1614 15.8851 12.9865C15.8972 10.8133 14.14 9.04236 11.9617 9.03546M11.9634 8.51245C14.4317 8.52281 16.4219 10.5251 16.4116 12.9865C16.3995 15.4548 14.3972 17.4415 11.9341 17.4277C9.47613 17.4139 7.49286 15.4116 7.50494 12.9571C7.51702 10.4975 9.51756 8.50382 11.9652 8.51418" stroke="#D97904" stroke-width="0.25"/>
<path d="M11.9756 10.2212C10.4679 10.2164 9.23595 11.4435 9.23113 12.9558C9.22632 14.4668 10.4486 15.6964 11.9623 15.7012C13.4761 15.706 14.7044 14.4897 14.7128 12.9738C14.7212 11.4592 13.4953 10.2248 11.9756 10.22M11.9768 9.85547C13.6989 9.86269 15.0873 11.2583 15.0801 12.9738C15.0717 14.6942 13.6748 16.079 11.9563 16.0693C10.2415 16.0597 8.85782 14.6642 8.86625 12.9534C8.87468 11.239 10.2704 9.84945 11.978 9.85667" fill="#D97904"/>
<path d="M11.9756 10.2212C10.4679 10.2164 9.23595 11.4435 9.23113 12.9558C9.22632 14.4668 10.4486 15.6964 11.9623 15.7012C13.4761 15.706 14.7044 14.4897 14.7128 12.9738C14.7212 11.4592 13.4953 10.2248 11.9756 10.22M11.9768 9.85547C13.6989 9.86269 15.0873 11.2583 15.0801 12.9738C15.0717 14.6942 13.6748 16.079 11.9563 16.0693C10.2415 16.0597 8.85782 14.6642 8.86625 12.9534C8.87468 11.239 10.2704 9.84945 11.978 9.85667" stroke="#D97904" stroke-width="0.3"/>
<path d="M5.58581 9.3755C5.58926 9.19254 5.48742 8.81974 5.07137 8.81974C4.71068 8.81974 4.55015 9.14416 4.55015 9.37032C4.55015 9.59648 4.80907 9.8554 5.07137 9.8554C5.4995 9.8554 5.58327 9.51018 5.58581 9.3755ZM5.08518 10.2213C4.61223 10.2213 4.22731 9.84155 4.22559 9.37032C4.22559 8.90083 4.60878 8.51418 5.08 8.51246C5.55123 8.51073 5.93614 8.89392 5.93787 9.36515C5.93787 9.83982 5.55986 10.2196 5.08518 10.2213Z" fill="#D97904" stroke="#D97904" stroke-width="0.15"/>
<path d="M11.9551 6.85699C11.5477 6.85699 11.1386 6.85699 10.7313 6.85699C10.5138 6.85699 10.3895 6.75688 10.3947 6.59117C10.3981 6.43237 10.5224 6.33398 10.7261 6.33398C11.5477 6.33398 12.3693 6.33398 13.1927 6.33398C13.3964 6.33398 13.5189 6.43582 13.5206 6.59462C13.5224 6.75688 13.4033 6.85699 13.1979 6.85699C12.7836 6.85872 12.3693 6.85699 11.9568 6.85699" fill="#D97904"/>
<path d="M18.9672 8.77649C19.0363 8.77649 19.1071 8.76958 19.1761 8.77649C19.3228 8.79375 19.4091 8.8766 19.4143 9.0285C19.4195 9.18039 19.3314 9.27533 19.1899 9.29086C19.0346 9.30812 18.8758 9.3064 18.7187 9.29086C18.5754 9.27705 18.4908 9.18039 18.4874 9.03195C18.4839 8.89041 18.5875 8.78685 18.7394 8.77476C18.8153 8.76958 18.8896 8.77476 18.9655 8.77476" fill="#D97904"/>
</svg>
