<svg width="24" height="24" viewBox="0 0 24 24" fill="none" xmlns="http://www.w3.org/2000/svg">
<rect width="24" height="24" fill="white"/>
<path d="M12.0013 13.0996C11.9337 13.0996 11.8789 13.1544 11.8789 13.222V14.5629C11.8789 14.6305 11.9337 14.6853 12.0013 14.6853C12.0689 14.6853 12.1237 14.6305 12.1237 14.5629V13.222C12.1237 13.1544 12.0689 13.0996 12.0013 13.0996Z" fill="#D97904"/>
<path d="M12.0007 14.6963C11.9276 14.6963 11.8691 14.6378 11.8691 14.5647V13.2238C11.8691 13.1507 11.9276 13.0923 12.0007 13.0923C12.0737 13.0923 12.1322 13.1507 12.1322 13.2238V14.5647C12.1322 14.6378 12.0737 14.6963 12.0007 14.6963ZM12.0007 13.1087C11.9386 13.1087 11.8874 13.1599 11.8874 13.222V14.5629C11.8874 14.625 11.9386 14.6762 12.0007 14.6762C12.0628 14.6762 12.1139 14.625 12.1139 14.5629V13.222C12.1139 13.1599 12.0628 13.1087 12.0007 13.1087Z" fill="#D97904"/>
<path d="M12.0013 13.0996C11.9337 13.0996 11.8789 13.1544 11.8789 13.222V14.5629C11.8789 14.6305 11.9337 14.6853 12.0013 14.6853C12.0689 14.6853 12.1237 14.6305 12.1237 14.5629V13.222C12.1237 13.1544 12.0689 13.0996 12.0013 13.0996Z" fill="#D97904"/>
<path d="M12.0007 14.6963C11.9276 14.6963 11.8691 14.6378 11.8691 14.5647V13.2238C11.8691 13.1507 11.9276 13.0923 12.0007 13.0923C12.0737 13.0923 12.1322 13.1507 12.1322 13.2238V14.5647C12.1322 14.6378 12.0737 14.6963 12.0007 14.6963ZM12.0007 13.1087C11.9386 13.1087 11.8874 13.1599 11.8874 13.222V14.5629C11.8874 14.625 11.9386 14.6762 12.0007 14.6762C12.0628 14.6762 12.1139 14.625 12.1139 14.5629V13.222C12.1139 13.1599 12.0628 13.1087 12.0007 13.1087Z" fill="#D97904"/>
<path d="M12.0013 15.7832C11.9337 15.7832 11.8789 15.838 11.8789 15.9056V17.2483C11.8789 17.3159 11.9337 17.3707 12.0013 17.3707C12.0689 17.3707 12.1237 17.3159 12.1237 17.2483V15.9056C12.1237 15.838 12.0689 15.7832 12.0013 15.7832Z" fill="#D97904"/>
<path d="M12.0007 17.38C11.9276 17.38 11.8691 17.3215 11.8691 17.2484V15.9057C11.8691 15.8326 11.9276 15.7742 12.0007 15.7742C12.0737 15.7742 12.1322 15.8326 12.1322 15.9057V17.2484C12.1322 17.3215 12.0737 17.38 12.0007 17.38ZM12.0007 15.7924C11.9386 15.7924 11.8874 15.8436 11.8874 15.9057V17.2484C11.8874 17.3106 11.9386 17.3617 12.0007 17.3617C12.0628 17.3617 12.1139 17.3106 12.1139 17.2484V15.9057C12.1139 15.8436 12.0628 15.7924 12.0007 15.7924Z" fill="#D97904"/>
<path d="M12.0013 15.7832C11.9337 15.7832 11.8789 15.838 11.8789 15.9056V17.2483C11.8789 17.3159 11.9337 17.3707 12.0013 17.3707C12.0689 17.3707 12.1237 17.3159 12.1237 17.2483V15.9056C12.1237 15.838 12.0689 15.7832 12.0013 15.7832Z" fill="#D97904"/>
<path d="M12.0007 17.38C11.9276 17.38 11.8691 17.3215 11.8691 17.2484V15.9057C11.8691 15.8326 11.9276 15.7742 12.0007 15.7742C12.0737 15.7742 12.1322 15.8326 12.1322 15.9057V17.2484C12.1322 17.3215 12.0737 17.38 12.0007 17.38ZM12.0007 15.7924C11.9386 15.7924 11.8874 15.8436 11.8874 15.9057V17.2484C11.8874 17.3106 11.9386 17.3617 12.0007 17.3617C12.0628 17.3617 12.1139 17.3106 12.1139 17.2484V15.9057C12.1139 15.8436 12.0628 15.7924 12.0007 15.7924Z" fill="#D97904"/>
<path d="M20.6234 18.2787C20.6234 18.7848 20.2124 19.1958 19.7064 19.1958H14.5126L18.835 18.5601C18.835 18.5601 18.8459 18.5582 18.8514 18.5564L18.9756 18.5272C18.9756 18.5272 18.9848 18.5253 18.9884 18.5235C19.5219 18.35 19.8927 17.8476 19.8927 17.3032V6.00591C20.3092 6.0936 20.6216 6.46262 20.6216 6.90472V18.2806L20.6234 18.2787ZM12.0007 18.4669C11.9331 18.4669 11.8783 18.5217 11.8783 18.5893V19.0752L5.90813 17.5224L5.804 17.4968C5.47517 17.389 5.25595 17.0876 5.25595 16.7478V5.14364C5.25595 5.14364 5.25595 5.13268 5.25412 5.12719C5.25412 5.11623 5.25412 5.1071 5.25047 5.09614C5.25595 5.04133 5.26691 4.98835 5.28335 4.9372C5.30344 4.86961 5.33267 4.8075 5.36921 4.74904C5.51171 4.52799 5.76199 4.37818 6.04698 4.37636L6.21505 4.39097L9.43396 5.32267L10.4497 5.61679L10.7219 5.69535L11.7157 5.98399L11.8801 6.03149V6.51195C11.8801 6.57954 11.9349 6.63435 12.0025 6.63435C12.0701 6.63435 12.1249 6.57954 12.1249 6.51195V6.02601L12.2711 5.98399L13.2685 5.69535L13.5389 5.61679L14.5583 5.32267L17.7736 4.39097L17.9416 4.37636C18.2266 4.37818 18.4769 4.52799 18.6176 4.74904C18.6541 4.8075 18.6852 4.86961 18.7052 4.9372C18.7253 4.99749 18.7345 5.06143 18.7381 5.12719C18.7381 5.13998 18.7381 5.15277 18.7381 5.16556C18.7381 5.19296 18.7454 5.22037 18.7564 5.24594V16.746C18.7564 17.0785 18.5244 17.3854 18.1883 17.495L12.1213 19.0716V18.5875C12.1213 18.5199 12.0665 18.4651 11.9989 18.4651M4.29502 19.1958C3.78898 19.1958 3.37794 18.7848 3.37794 18.2787V6.9029C3.37794 6.4608 3.69216 6.09177 4.10868 6.00409C4.10868 6.01322 4.10868 6.02418 4.10868 6.03332C4.10868 6.05341 4.11234 6.07533 4.11964 6.0936V17.3014C4.11964 17.8585 4.47405 18.3481 5.00384 18.5217C5.00749 18.5217 5.01298 18.5235 5.01663 18.5253L5.14086 18.5546C5.14086 18.5546 5.15182 18.5582 5.1573 18.5582L9.47963 19.1921H4.29685L4.29502 19.1958ZM4.57453 5.61862C4.64578 5.47612 4.75539 5.35555 4.88875 5.26786V16.7478C4.88875 17.2502 5.21393 17.6923 5.69805 17.8476C5.7017 17.8476 5.70718 17.8494 5.71084 17.8512L9.42118 18.8158L5.21941 18.1983L5.11162 18.1709C4.73712 18.0467 4.48684 17.6978 4.48684 17.3014V6.00409C4.48684 6.00409 4.48502 5.9913 4.48319 5.98399C4.48319 5.97303 4.48319 5.96389 4.47953 5.95476C4.4905 5.83419 4.52338 5.72092 4.57636 5.61679M19.1236 16.7478V5.28978C19.2423 5.37382 19.3392 5.48709 19.4068 5.61862C19.4634 5.73006 19.4981 5.85428 19.5054 5.98582C19.5054 6.00226 19.5072 6.0187 19.5072 6.03332C19.5072 6.06255 19.5145 6.09177 19.5273 6.11735V17.3014C19.5273 17.6868 19.2624 18.0431 18.8806 18.1709L18.7728 18.1983L14.5674 18.8158L18.17 17.8786L18.2814 17.8512C18.2814 17.8512 18.2906 17.8512 18.2942 17.8476C18.782 17.6905 19.1218 17.2392 19.1218 16.7478M19.805 5.6241C19.6826 5.26421 19.4068 4.97557 19.056 4.83673C18.9099 4.35992 18.4623 4.01099 17.9307 4.01099C17.9252 4.01099 17.9197 4.01099 17.9142 4.01099L17.7206 4.02926C17.7078 4.02926 17.6968 4.03291 17.6859 4.03656L12.2181 5.62044H11.7669L6.29725 4.03656C6.28629 4.03291 6.27533 4.03108 6.26254 4.02926L6.0689 4.01099C6.0689 4.01099 6.05794 4.01099 6.05246 4.01099C5.52084 4.01099 5.07143 4.35992 4.92711 4.83855C4.5727 4.97557 4.29502 5.26421 4.17445 5.62593C3.52226 5.68804 3.01074 6.23609 3.01074 6.90472V18.2806C3.01074 18.9875 3.5862 19.5648 4.29502 19.5648H11.9696C11.9696 19.5648 11.9806 19.5685 11.9843 19.5685H12.008C12.008 19.5685 12.0171 19.5667 12.0226 19.5648H19.7064C20.4152 19.5648 20.9906 18.9894 20.9906 18.2806V6.90472C20.9906 6.23061 20.4663 5.67708 19.805 5.62593" fill="#D97904"/>
<path d="M12.0082 19.5739H11.9845C11.9845 19.5739 11.9753 19.5739 11.9717 19.5721C11.9717 19.5721 11.968 19.5721 11.9662 19.5721H4.29341C3.58094 19.5721 3 18.993 3 18.2787V6.90287C3 6.57952 3.12057 6.26895 3.3398 6.02964C3.55536 5.79397 3.84949 5.646 4.16553 5.61494C4.28976 5.25505 4.56196 4.96823 4.9182 4.82939C5.068 4.34162 5.53202 4 6.05085 4C6.05633 4 6.06181 4 6.06912 4L6.26276 4.01827C6.27555 4.01827 6.28651 4.02192 6.2993 4.02558L11.7671 5.60763H12.2147L17.6824 4.02558C17.6934 4.02192 17.7062 4.0201 17.719 4.01827L17.9126 4C17.9126 4 17.9236 4 17.9309 4C18.4479 4 18.9119 4.33979 19.0635 4.82939C19.4161 4.96823 19.6883 5.25505 19.8125 5.61494C20.4793 5.66974 21 6.23424 21 6.90287V18.2787C21 18.9912 20.4191 19.5721 19.7066 19.5721H12.0228C12.0228 19.5721 12.0228 19.5721 12.021 19.5721C12.0174 19.5721 12.0137 19.5739 12.0082 19.5739ZM6.05268 4.0201C5.54116 4.0201 5.08262 4.35806 4.93647 4.84035V4.84401H4.93099C4.57658 4.98102 4.30438 5.26601 4.1838 5.6259V5.63138H4.17649C3.86228 5.66061 3.56998 5.80676 3.35624 6.0406C3.14067 6.27626 3.02192 6.58135 3.02192 6.90105V18.2769C3.02192 18.9802 3.59373 19.552 4.29707 19.552H11.9717C11.9717 19.552 11.9772 19.552 11.979 19.552C11.9826 19.552 11.9845 19.552 11.9863 19.552H12.01C12.01 19.552 12.0137 19.552 12.0174 19.552C12.0192 19.552 12.021 19.552 12.0228 19.552H19.7084C20.4118 19.552 20.9836 18.9802 20.9836 18.2769V6.90105C20.9836 6.23972 20.4666 5.68253 19.8071 5.63138H19.8016L19.7998 5.6259C19.6792 5.26784 19.407 4.98285 19.0562 4.84401H19.0526V4.83853C18.9064 4.35624 18.4461 4.01827 17.9364 4.01827C17.9309 4.01827 17.9254 4.01827 17.9199 4.01827L17.7263 4.03654C17.7153 4.03654 17.7044 4.04019 17.6934 4.04202L12.2238 5.6259H11.7707L6.30113 4.04202C6.29017 4.03836 6.2792 4.03654 6.26824 4.03654L6.0746 4.01827C6.0746 4.01827 6.06364 4.01827 6.05998 4.01827L6.05268 4.0201ZM19.7066 19.2049H14.5128V19.1866L18.837 18.5509C18.8407 18.5509 18.8461 18.5509 18.8516 18.5472L18.9758 18.518C18.9758 18.518 18.9832 18.5162 18.9868 18.5144C19.5166 18.3408 19.8856 17.8439 19.8856 17.3032V5.99492L19.8966 5.99675C20.3241 6.08627 20.6328 6.46808 20.6328 6.90287V18.2787C20.6328 18.7902 20.2181 19.2049 19.7066 19.2049ZM14.6389 19.1866H19.7066C20.2071 19.1866 20.6145 18.7793 20.6145 18.2787V6.90287C20.6145 6.47904 20.3168 6.10819 19.9039 6.01685V17.3032C19.9039 17.8512 19.5294 18.3572 18.9923 18.5326C18.9886 18.5326 18.9832 18.5363 18.9795 18.5363L18.8553 18.5655C18.8553 18.5655 18.8461 18.5673 18.8407 18.5692H18.8388L14.6389 19.1866ZM9.47803 19.2049H4.29524C3.78372 19.2049 3.36903 18.7902 3.36903 18.2787V6.90287C3.36903 6.46625 3.67959 6.08444 4.10707 5.99675H4.11804V6.01502C4.11804 6.0205 4.11804 6.02781 4.11804 6.03329C4.11804 6.05339 4.12169 6.07348 4.129 6.09175V6.0954V17.3032C4.129 17.8567 4.48158 18.3426 5.00589 18.5144C5.00954 18.5144 5.01502 18.5162 5.01868 18.518L5.1429 18.5472C5.1429 18.5472 5.15386 18.5509 5.15934 18.5509L9.48168 19.1848V19.2031L9.47803 19.2049ZM4.09794 6.01502C3.68507 6.10636 3.3873 6.47722 3.3873 6.90105V18.2769C3.3873 18.7774 3.79468 19.1848 4.29524 19.1848H9.35197L5.15386 18.5692C5.15386 18.5692 5.14107 18.5673 5.13559 18.5637L5.01319 18.5345C5.01319 18.5345 5.00406 18.5326 4.99858 18.5308C4.46696 18.3573 4.1089 17.8622 4.1089 17.3013V6.0954C4.10159 6.07531 4.09794 6.05339 4.09794 6.03329C4.09794 6.02781 4.09794 6.02233 4.09794 6.01685V6.01502ZM11.8877 19.088L11.8767 19.0843L5.90653 17.5315L5.8024 17.5059C5.46991 17.3963 5.24703 17.0912 5.24703 16.7478V5.14361C5.24703 5.14361 5.24703 5.13813 5.24703 5.1363C5.24703 5.13448 5.24703 5.13082 5.24703 5.12899V5.12169C5.24703 5.12169 5.24703 5.10707 5.24338 5.10159V5.09794C5.24886 5.04679 5.25982 4.99381 5.27626 4.93718C5.29818 4.86776 5.32741 4.80382 5.36395 4.74718C5.51375 4.51335 5.76951 4.37268 6.04902 4.37085L6.21892 4.38547L11.8931 6.02781V6.51558C11.8931 6.57769 11.9443 6.62884 12.0064 6.62884C12.0685 6.62884 12.1197 6.57769 12.1197 6.51558V6.02233L12.2713 5.97848L17.772 4.38547L17.9418 4.36903C18.2214 4.37085 18.4771 4.51335 18.6269 4.74536C18.6653 4.80564 18.6963 4.86958 18.7164 4.93535C18.7347 4.99563 18.7475 5.05957 18.7493 5.12899V5.14178C18.7493 5.14178 18.7493 5.16005 18.7493 5.16919C18.7493 5.19476 18.7548 5.22034 18.7676 5.24592V5.24957V16.7496C18.7676 17.0839 18.5319 17.3963 18.194 17.5078L12.116 19.088V18.5929C12.116 18.5619 12.105 18.5345 12.0831 18.5125C12.0612 18.4906 12.0338 18.4797 12.0027 18.4797C11.9406 18.4797 11.8895 18.5308 11.8895 18.5929V19.0898L11.8877 19.088ZM5.25799 5.09611C5.25799 5.09611 5.26165 5.11073 5.26165 5.11986V5.12717C5.26165 5.12717 5.26165 5.13082 5.26165 5.13265C5.26165 5.1363 5.26165 5.13996 5.26165 5.14361V16.7478C5.26165 17.0839 5.47904 17.3817 5.80422 17.4877L5.90835 17.5132L11.8676 19.0642V18.5911C11.8676 18.518 11.926 18.4596 11.9991 18.4596C12.0338 18.4596 12.0667 18.4723 12.0923 18.4979C12.116 18.5235 12.1306 18.5564 12.1306 18.5911V19.0624L18.1848 17.4895C18.5155 17.3799 18.7457 17.0766 18.7457 16.7496V5.25322C18.7329 5.22582 18.7274 5.19842 18.7274 5.17101C18.7274 5.16188 18.7274 5.15275 18.7274 5.14544V5.13265C18.7237 5.06688 18.7128 5.00294 18.6945 4.94448C18.6744 4.88054 18.6452 4.81843 18.6068 4.75814C18.4607 4.52979 18.2104 4.39277 17.9382 4.38912L17.7701 4.40374L12.1306 6.03694V6.51558C12.1306 6.58865 12.0722 6.64711 11.9991 6.64711C11.926 6.64711 11.8676 6.58865 11.8676 6.51558V6.04242L6.20796 4.40374L6.04171 4.38912C5.76951 4.39095 5.51923 4.52979 5.37309 4.75814C5.33655 4.81478 5.30915 4.87689 5.28722 4.94448C5.27078 4.99929 5.25982 5.05044 5.25434 5.09977L5.25799 5.09611ZM14.5695 18.8249L14.5658 18.8067L18.1684 17.8695L18.2853 17.8421C18.2853 17.8421 18.2908 17.8421 18.2926 17.8403C18.7767 17.685 19.1147 17.2356 19.1147 16.7478V5.27149L19.1293 5.28245C19.2499 5.36831 19.3485 5.48341 19.4143 5.61494C19.4728 5.73003 19.5056 5.85426 19.5129 5.98579V5.99675C19.5129 6.00954 19.5148 6.02233 19.5148 6.03512C19.5148 6.06252 19.5221 6.08992 19.5349 6.1155V6.11915V17.3032C19.5349 17.6923 19.2663 18.0522 18.8827 18.1819L18.7731 18.2093L14.5676 18.8268L14.5695 18.8249ZM19.133 5.3062V16.746C19.133 17.241 18.7895 17.6978 18.2999 17.8549C18.2963 17.8549 18.2944 17.8567 18.2908 17.8567H18.2871L18.1757 17.8841L14.7357 18.7793L18.7749 18.1855L18.8827 18.1581C19.259 18.0321 19.5221 17.6777 19.5221 17.2977V6.1155C19.5075 6.0881 19.502 6.05887 19.502 6.02964C19.502 6.01685 19.502 6.00589 19.502 5.9931V5.98214C19.4947 5.85426 19.4618 5.73186 19.4052 5.61859C19.343 5.49437 19.2499 5.38658 19.1384 5.30255L19.133 5.3062ZM9.41774 18.8249L5.21598 18.2074L5.10636 18.18C4.7282 18.054 4.47427 17.7014 4.47427 17.3013V6.00406C4.47427 6.00406 4.47427 5.99675 4.47427 5.9931C4.47427 5.99127 4.47427 5.98762 4.47427 5.98579V5.97848C4.47427 5.97848 4.47245 5.96387 4.47062 5.95656V5.95291C4.47975 5.83416 4.51264 5.71907 4.56744 5.61311C4.64052 5.47062 4.75013 5.34822 4.88349 5.2587L4.8981 5.24957V16.7478C4.8981 17.2465 5.22146 17.685 5.70192 17.8403C5.70375 17.8403 5.70557 17.8403 5.7074 17.8403C5.70923 17.8403 5.71288 17.8402 5.71471 17.8421L9.42322 18.8067L9.41957 18.8249H9.41774ZM4.48706 5.95473C4.48706 5.95473 4.48889 5.96935 4.49071 5.97666V5.98396C4.49071 5.98396 4.49071 5.98762 4.49254 5.98944C4.49254 5.99492 4.49437 5.99858 4.49437 6.00406V17.3013C4.49437 17.6923 4.74282 18.0375 5.11367 18.1618L5.22146 18.1892L9.25515 18.7829L5.7074 17.8603C5.7074 17.8603 5.70375 17.8603 5.70192 17.8585C5.70009 17.8585 5.69644 17.8585 5.69461 17.8567C5.20684 17.6996 4.87984 17.2538 4.87984 16.7478V5.28428C4.75378 5.37014 4.65148 5.48706 4.58388 5.62225C4.5309 5.72638 4.49802 5.83782 4.48889 5.95473H4.48706Z" fill="#D97904"/>
<path d="M20.6234 18.2787C20.6234 18.7848 20.2124 19.1958 19.7064 19.1958H14.5126L18.835 18.5601C18.835 18.5601 18.8459 18.5582 18.8514 18.5564L18.9756 18.5272C18.9756 18.5272 18.9848 18.5253 18.9884 18.5235C19.5219 18.35 19.8927 17.8476 19.8927 17.3032V6.00591C20.3092 6.0936 20.6216 6.46262 20.6216 6.90472V18.2806L20.6234 18.2787ZM12.0007 18.4669C11.9331 18.4669 11.8783 18.5217 11.8783 18.5893V19.0752L5.90813 17.5224L5.804 17.4968C5.47517 17.389 5.25595 17.0876 5.25595 16.7478V5.14364C5.25595 5.14364 5.25595 5.13268 5.25412 5.12719C5.25412 5.11623 5.25412 5.1071 5.25047 5.09614C5.25595 5.04133 5.26691 4.98835 5.28335 4.9372C5.30344 4.86961 5.33267 4.8075 5.36921 4.74904C5.51171 4.52799 5.76199 4.37818 6.04698 4.37636L6.21505 4.39097L9.43396 5.32267L10.4497 5.61679L10.7219 5.69535L11.7157 5.98399L11.8801 6.03149V6.51195C11.8801 6.57954 11.9349 6.63435 12.0025 6.63435C12.0701 6.63435 12.1249 6.57954 12.1249 6.51195V6.02601L12.2711 5.98399L13.2685 5.69535L13.5389 5.61679L14.5583 5.32267L17.7736 4.39097L17.9416 4.37636C18.2266 4.37818 18.4769 4.52799 18.6176 4.74904C18.6541 4.8075 18.6852 4.86961 18.7052 4.9372C18.7253 4.99749 18.7345 5.06143 18.7381 5.12719C18.7381 5.13998 18.7381 5.15277 18.7381 5.16556C18.7381 5.19296 18.7454 5.22037 18.7564 5.24594V16.746C18.7564 17.0785 18.5244 17.3854 18.1883 17.495L12.1213 19.0716V18.5875C12.1213 18.5199 12.0665 18.4651 11.9989 18.4651L12.0007 18.4669ZM4.29502 19.1958C3.78898 19.1958 3.37794 18.7848 3.37794 18.2787V6.9029C3.37794 6.4608 3.69216 6.09177 4.10868 6.00409C4.10868 6.01322 4.10868 6.02418 4.10868 6.03332C4.10868 6.05341 4.11234 6.07533 4.11964 6.0936V17.3014C4.11964 17.8585 4.47405 18.3481 5.00384 18.5217C5.00749 18.5217 5.01298 18.5235 5.01663 18.5253L5.14086 18.5546C5.14086 18.5546 5.15182 18.5582 5.1573 18.5582L9.47963 19.1921H4.29685L4.29502 19.1958ZM4.57453 5.61862C4.64578 5.47612 4.75539 5.35555 4.88875 5.26786V16.7478C4.88875 17.2502 5.21393 17.6923 5.69805 17.8476C5.7017 17.8476 5.70718 17.8494 5.71084 17.8512L9.42118 18.8158L5.21941 18.1983L5.11162 18.1709C4.73712 18.0467 4.48684 17.6978 4.48684 17.3014V6.00409C4.48684 6.00409 4.48502 5.9913 4.48319 5.98399C4.48319 5.97303 4.48319 5.96389 4.47953 5.95476C4.4905 5.83419 4.52338 5.72092 4.57636 5.61679L4.57453 5.61862ZM19.1236 16.7478V5.28978C19.2423 5.37382 19.3392 5.48709 19.4068 5.61862C19.4634 5.73006 19.4981 5.85428 19.5054 5.98582C19.5054 6.00226 19.5072 6.0187 19.5072 6.03332C19.5072 6.06255 19.5145 6.09177 19.5273 6.11735V17.3014C19.5273 17.6868 19.2624 18.0431 18.8806 18.1709L18.7728 18.1983L14.5674 18.8158L18.17 17.8786L18.2814 17.8512C18.2814 17.8512 18.2906 17.8512 18.2942 17.8476C18.782 17.6905 19.1218 17.2392 19.1218 16.7478H19.1236ZM19.805 5.6241C19.6826 5.26421 19.4068 4.97557 19.056 4.83673C18.9099 4.35992 18.4623 4.01099 17.9307 4.01099C17.9252 4.01099 17.9197 4.01099 17.9142 4.01099L17.7206 4.02926C17.7078 4.02926 17.6968 4.03291 17.6859 4.03656L12.2181 5.62044H11.7669L6.29725 4.03656C6.28629 4.03291 6.27533 4.03108 6.26254 4.02926L6.0689 4.01099C6.0689 4.01099 6.05794 4.01099 6.05246 4.01099C5.52084 4.01099 5.07143 4.35992 4.92711 4.83855C4.5727 4.97557 4.29502 5.26421 4.17445 5.62593C3.52226 5.68804 3.01074 6.23609 3.01074 6.90472V18.2806C3.01074 18.9875 3.5862 19.5648 4.29502 19.5648H11.9696C11.9696 19.5648 11.9806 19.5685 11.9843 19.5685H12.008C12.008 19.5685 12.0171 19.5667 12.0226 19.5648H19.7064C20.4152 19.5648 20.9906 18.9894 20.9906 18.2806V6.90472C20.9906 6.23061 20.4663 5.67708 19.805 5.62593V5.6241Z" fill="#D97904"/>
<path d="M12.0082 19.5739H11.9845C11.9845 19.5739 11.9753 19.5739 11.9717 19.5721C11.9717 19.5721 11.968 19.5721 11.9662 19.5721H4.29341C3.58094 19.5721 3 18.993 3 18.2787V6.90287C3 6.57952 3.12057 6.26895 3.3398 6.02964C3.55536 5.79397 3.84949 5.646 4.16553 5.61494C4.28976 5.25505 4.56196 4.96823 4.9182 4.82939C5.068 4.34162 5.53202 4 6.05085 4C6.05633 4 6.06181 4 6.06912 4L6.26276 4.01827C6.27555 4.01827 6.28651 4.02192 6.2993 4.02558L11.7671 5.60763H12.2147L17.6824 4.02558C17.6934 4.02192 17.7062 4.0201 17.719 4.01827L17.9126 4C17.9126 4 17.9236 4 17.9309 4C18.4479 4 18.9119 4.33979 19.0635 4.82939C19.4161 4.96823 19.6883 5.25505 19.8125 5.61494C20.4793 5.66974 21 6.23424 21 6.90287V18.2787C21 18.9912 20.4191 19.5721 19.7066 19.5721H12.0228C12.0228 19.5721 12.0228 19.5721 12.021 19.5721C12.0174 19.5721 12.0137 19.5739 12.0082 19.5739ZM6.05268 4.0201C5.54116 4.0201 5.08262 4.35806 4.93647 4.84035V4.84401H4.93099C4.57658 4.98102 4.30438 5.26601 4.1838 5.6259V5.63138H4.17649C3.86228 5.66061 3.56998 5.80676 3.35624 6.0406C3.14067 6.27626 3.02192 6.58135 3.02192 6.90105V18.2769C3.02192 18.9802 3.59373 19.552 4.29707 19.552H11.9717C11.9717 19.552 11.9772 19.552 11.979 19.552C11.9826 19.552 11.9845 19.552 11.9863 19.552H12.01C12.01 19.552 12.0137 19.552 12.0174 19.552C12.0192 19.552 12.021 19.552 12.0228 19.552H19.7084C20.4118 19.552 20.9836 18.9802 20.9836 18.2769V6.90105C20.9836 6.23972 20.4666 5.68253 19.8071 5.63138H19.8016L19.7998 5.6259C19.6792 5.26784 19.407 4.98285 19.0562 4.84401H19.0526V4.83853C18.9064 4.35624 18.4461 4.01827 17.9364 4.01827C17.9309 4.01827 17.9254 4.01827 17.9199 4.01827L17.7263 4.03654C17.7153 4.03654 17.7044 4.04019 17.6934 4.04202L12.2238 5.6259H11.7707L6.30113 4.04202C6.29017 4.03836 6.2792 4.03654 6.26824 4.03654L6.0746 4.01827C6.0746 4.01827 6.06364 4.01827 6.05998 4.01827L6.05268 4.0201ZM19.7066 19.2049H14.5128V19.1866L18.837 18.5509C18.8407 18.5509 18.8461 18.5509 18.8516 18.5472L18.9758 18.518C18.9758 18.518 18.9832 18.5162 18.9868 18.5144C19.5166 18.3408 19.8856 17.8439 19.8856 17.3032V5.99492L19.8966 5.99675C20.3241 6.08627 20.6328 6.46808 20.6328 6.90287V18.2787C20.6328 18.7902 20.2181 19.2049 19.7066 19.2049ZM14.6389 19.1866H19.7066C20.2071 19.1866 20.6145 18.7793 20.6145 18.2787V6.90287C20.6145 6.47904 20.3168 6.10819 19.9039 6.01685V17.3032C19.9039 17.8512 19.5294 18.3572 18.9923 18.5326C18.9886 18.5326 18.9832 18.5363 18.9795 18.5363L18.8553 18.5655C18.8553 18.5655 18.8461 18.5673 18.8407 18.5692H18.8388L14.6389 19.1866ZM9.47803 19.2049H4.29524C3.78372 19.2049 3.36903 18.7902 3.36903 18.2787V6.90287C3.36903 6.46625 3.67959 6.08444 4.10707 5.99675H4.11804V6.01502C4.11804 6.0205 4.11804 6.02781 4.11804 6.03329C4.11804 6.05339 4.12169 6.07348 4.129 6.09175V6.0954V17.3032C4.129 17.8567 4.48158 18.3426 5.00589 18.5144C5.00954 18.5144 5.01502 18.5162 5.01868 18.518L5.1429 18.5472C5.1429 18.5472 5.15386 18.5509 5.15934 18.5509L9.48168 19.1848V19.2031L9.47803 19.2049ZM4.09794 6.01502C3.68507 6.10636 3.3873 6.47722 3.3873 6.90105V18.2769C3.3873 18.7774 3.79468 19.1848 4.29524 19.1848H9.35197L5.15386 18.5692C5.15386 18.5692 5.14107 18.5673 5.13559 18.5637L5.01319 18.5345C5.01319 18.5345 5.00406 18.5326 4.99858 18.5308C4.46696 18.3573 4.1089 17.8622 4.1089 17.3013V6.0954C4.10159 6.07531 4.09794 6.05339 4.09794 6.03329C4.09794 6.02781 4.09794 6.02233 4.09794 6.01685V6.01502ZM11.8877 19.088L11.8767 19.0843L5.90653 17.5315L5.8024 17.5059C5.46991 17.3963 5.24703 17.0912 5.24703 16.7478V5.14361C5.24703 5.14361 5.24703 5.13813 5.24703 5.1363C5.24703 5.13448 5.24703 5.13082 5.24703 5.12899V5.12169C5.24703 5.12169 5.24703 5.10707 5.24338 5.10159V5.09794C5.24886 5.04679 5.25982 4.99381 5.27626 4.93718C5.29818 4.86776 5.32741 4.80382 5.36395 4.74718C5.51375 4.51335 5.76951 4.37268 6.04902 4.37085L6.21892 4.38547L11.8931 6.02781V6.51558C11.8931 6.57769 11.9443 6.62884 12.0064 6.62884C12.0685 6.62884 12.1197 6.57769 12.1197 6.51558V6.02233L12.2713 5.97848L17.772 4.38547L17.9418 4.36903C18.2214 4.37085 18.4771 4.51335 18.6269 4.74536C18.6653 4.80564 18.6963 4.86958 18.7164 4.93535C18.7347 4.99563 18.7475 5.05957 18.7493 5.12899V5.14178C18.7493 5.14178 18.7493 5.16005 18.7493 5.16919C18.7493 5.19476 18.7548 5.22034 18.7676 5.24592V5.24957V16.7496C18.7676 17.0839 18.5319 17.3963 18.194 17.5078L12.116 19.088V18.5929C12.116 18.5619 12.105 18.5345 12.0831 18.5125C12.0612 18.4906 12.0338 18.4797 12.0027 18.4797C11.9406 18.4797 11.8895 18.5308 11.8895 18.5929V19.0898L11.8877 19.088ZM5.25799 5.09611C5.25799 5.09611 5.26165 5.11073 5.26165 5.11986V5.12717C5.26165 5.12717 5.26165 5.13082 5.26165 5.13265C5.26165 5.1363 5.26165 5.13996 5.26165 5.14361V16.7478C5.26165 17.0839 5.47904 17.3817 5.80422 17.4877L5.90835 17.5132L11.8676 19.0642V18.5911C11.8676 18.518 11.926 18.4596 11.9991 18.4596C12.0338 18.4596 12.0667 18.4723 12.0923 18.4979C12.116 18.5235 12.1306 18.5564 12.1306 18.5911V19.0624L18.1848 17.4895C18.5155 17.3799 18.7457 17.0766 18.7457 16.7496V5.25322C18.7329 5.22582 18.7274 5.19842 18.7274 5.17101C18.7274 5.16188 18.7274 5.15275 18.7274 5.14544V5.13265C18.7237 5.06688 18.7128 5.00294 18.6945 4.94448C18.6744 4.88054 18.6452 4.81843 18.6068 4.75814C18.4607 4.52979 18.2104 4.39277 17.9382 4.38912L17.7701 4.40374L12.1306 6.03694V6.51558C12.1306 6.58865 12.0722 6.64711 11.9991 6.64711C11.926 6.64711 11.8676 6.58865 11.8676 6.51558V6.04242L6.20796 4.40374L6.04171 4.38912C5.76951 4.39095 5.51923 4.52979 5.37309 4.75814C5.33655 4.81478 5.30915 4.87689 5.28722 4.94448C5.27078 4.99929 5.25982 5.05044 5.25434 5.09977L5.25799 5.09611ZM14.5695 18.8249L14.5658 18.8067L18.1684 17.8695L18.2853 17.8421C18.2853 17.8421 18.2908 17.8421 18.2926 17.8403C18.7767 17.685 19.1147 17.2356 19.1147 16.7478V5.27149L19.1293 5.28245C19.2499 5.36831 19.3485 5.48341 19.4143 5.61494C19.4728 5.73003 19.5056 5.85426 19.5129 5.98579V5.99675C19.5129 6.00954 19.5148 6.02233 19.5148 6.03512C19.5148 6.06252 19.5221 6.08992 19.5349 6.1155V6.11915V17.3032C19.5349 17.6923 19.2663 18.0522 18.8827 18.1819L18.7731 18.2093L14.5676 18.8268L14.5695 18.8249ZM19.133 5.3062V16.746C19.133 17.241 18.7895 17.6978 18.2999 17.8549C18.2963 17.8549 18.2944 17.8567 18.2908 17.8567H18.2871L18.1757 17.8841L14.7357 18.7793L18.7749 18.1855L18.8827 18.1581C19.259 18.0321 19.5221 17.6777 19.5221 17.2977V6.1155C19.5075 6.0881 19.502 6.05887 19.502 6.02964C19.502 6.01685 19.502 6.00589 19.502 5.9931V5.98214C19.4947 5.85426 19.4618 5.73186 19.4052 5.61859C19.343 5.49437 19.2499 5.38658 19.1384 5.30255L19.133 5.3062ZM9.41774 18.8249L5.21598 18.2074L5.10636 18.18C4.7282 18.054 4.47427 17.7014 4.47427 17.3013V6.00406C4.47427 6.00406 4.47427 5.99675 4.47427 5.9931C4.47427 5.99127 4.47427 5.98762 4.47427 5.98579V5.97848C4.47427 5.97848 4.47245 5.96387 4.47062 5.95656V5.95291C4.47975 5.83416 4.51264 5.71907 4.56744 5.61311C4.64052 5.47062 4.75013 5.34822 4.88349 5.2587L4.8981 5.24957V16.7478C4.8981 17.2465 5.22146 17.685 5.70192 17.8403C5.70375 17.8403 5.70557 17.8403 5.7074 17.8403C5.70923 17.8403 5.71288 17.8402 5.71471 17.8421L9.42322 18.8067L9.41957 18.8249H9.41774ZM4.48706 5.95473C4.48706 5.95473 4.48889 5.96935 4.49071 5.97666V5.98396C4.49071 5.98396 4.49071 5.98762 4.49254 5.98944C4.49254 5.99492 4.49437 5.99858 4.49437 6.00406V17.3013C4.49437 17.6923 4.74282 18.0375 5.11367 18.1618L5.22146 18.1892L9.25515 18.7829L5.7074 17.8603C5.7074 17.8603 5.70375 17.8603 5.70192 17.8585C5.70009 17.8585 5.69644 17.8585 5.69461 17.8567C5.20684 17.6996 4.87984 17.2538 4.87984 16.7478V5.28428C4.75378 5.37014 4.65148 5.48706 4.58388 5.62225C4.5309 5.72638 4.49802 5.83782 4.48889 5.95473H4.48706Z" fill="#D97904"/>
<path d="M10.1516 10.6919C10.1315 10.7193 10.1096 10.7467 10.0877 10.7723C10.0822 10.7741 10.0786 10.7778 10.0749 10.7796C10.0658 10.7869 10.0566 10.7924 10.0475 10.7997C10.0329 10.8107 10.0201 10.8235 10.0055 10.8399C9.99818 10.8472 9.99088 10.8527 9.9854 10.8582L9.97444 10.8691C9.97444 10.8691 9.96348 10.8801 9.95799 10.8874C9.94155 10.8984 9.92328 10.9093 9.89953 10.9239L9.24552 11.3971L6.32073 15.1878C6.30977 15.2043 6.29332 15.2061 6.28784 15.2061C6.28236 15.2061 6.27323 15.2061 6.26409 15.1988C6.25131 15.1896 6.24765 15.1787 6.24765 15.1714C6.24765 15.1659 6.24765 15.1513 6.25861 15.1367L8.9039 11.1724L9.15418 10.3795C9.16331 10.3339 9.17793 10.29 9.19437 10.248C9.2035 10.2352 9.21081 10.2224 9.21446 10.2151L9.22542 10.1932C9.2309 10.1822 9.23456 10.1731 9.24004 10.1603C9.24187 10.153 9.24552 10.1457 9.24735 10.1384C9.26014 10.1146 9.27475 10.0927 9.29119 10.0708C9.40446 9.91186 9.56705 9.80408 9.73329 9.76755C9.74608 9.78033 9.75887 9.79129 9.77165 9.80225C9.62368 9.84792 9.47388 9.95936 9.35878 10.1201C9.22908 10.301 9.16696 10.5092 9.19619 10.6791C9.21264 10.7833 9.26196 10.8673 9.33869 10.9203C9.39532 10.9623 9.46657 10.9842 9.5433 10.9842C9.73146 10.9842 9.94155 10.8545 10.0914 10.6463C10.1827 10.5202 10.2339 10.385 10.2521 10.2608C10.2704 10.2791 10.2887 10.2955 10.3069 10.3138C10.2941 10.4417 10.2466 10.5768 10.1608 10.6956M9.88492 10.5001C9.73329 10.7102 9.5433 10.7705 9.47388 10.7193C9.45195 10.7047 9.43734 10.6755 9.43186 10.6371C9.41724 10.5549 9.44282 10.4124 9.55243 10.2608C9.66935 10.0982 9.8155 10.0233 9.90319 10.0233C9.92876 10.0233 9.94886 10.0288 9.9653 10.0397C10.0439 10.0964 10.0274 10.3065 9.88857 10.5001M14.9636 6.28739C14.2073 6.17778 13.0874 6.25085 12.4169 6.80804C12.1064 7.06563 11.9328 7.39811 11.8963 7.79454C11.8853 7.81281 11.878 7.83291 11.878 7.85483V9.19756C11.878 9.26516 11.9328 9.31996 12.0004 9.31996C12.068 9.31996 12.1228 9.26516 12.1228 9.19756V7.93338C12.1283 7.92059 12.1319 7.90781 12.1338 7.89319C12.1484 7.52965 12.2964 7.22639 12.574 6.9962C13.1459 6.52122 14.1689 6.41892 14.9307 6.52853C16.5401 6.76054 17.1028 8.01925 17.0973 9.02767C17.09 10.2425 16.288 11.5798 14.7681 11.7789C13.9022 11.894 12.9796 11.7259 12.1246 11.3185V10.5385C12.1246 10.4709 12.0698 10.4161 12.0022 10.4161C11.9346 10.4161 11.8798 10.4709 11.8798 10.5385V11.1961C11.4688 10.9751 11.076 10.6974 10.7161 10.3704C10.6613 10.3193 10.6047 10.2644 10.5444 10.2078C10.5353 9.97763 10.4366 9.76572 10.2539 9.63418C10.137 9.55015 9.99636 9.5063 9.84656 9.5063C9.83194 9.5063 9.81915 9.50813 9.80454 9.50996C9.11581 8.9071 8.29008 8.3901 7.4278 8.8121C6.69523 9.17199 6.58197 9.90821 6.48149 10.5586C6.45043 10.7614 6.4212 10.9532 6.37553 11.1359C6.35909 11.2016 6.39928 11.2674 6.46505 11.2838C6.52899 11.3003 6.59658 11.2601 6.61302 11.1943C6.66052 11.0007 6.6934 10.7942 6.72446 10.5933C6.82494 9.94475 6.91811 9.33275 7.53558 9.02949C8.22248 8.69153 8.90207 9.06603 9.51041 9.57572C9.34782 9.64697 9.19802 9.76572 9.08476 9.92465C9.06101 9.95754 9.03909 9.99225 9.01899 10.027L9.00803 10.0562C9.00803 10.0562 9.00437 10.0671 9.00255 10.0708C9.00255 10.0745 8.9989 10.0799 8.99524 10.0891C8.99341 10.0927 8.98976 10.0982 8.98611 10.1037L8.96784 10.1329C8.94043 10.195 8.92217 10.259 8.91121 10.3138L8.68285 11.0463L6.05035 14.9923C6.00468 15.0545 5.98641 15.1294 6.00103 15.2061C6.01382 15.281 6.054 15.3468 6.11612 15.3924C6.16544 15.4271 6.22208 15.4472 6.28419 15.4472C6.37553 15.4472 6.46322 15.4016 6.51437 15.3321L9.41359 11.5725L10.0292 11.1267C10.0566 11.1103 10.0822 11.0938 10.1078 11.0737L10.1315 11.0518C10.1315 11.0518 10.1389 11.0427 10.1462 11.0372L10.1589 11.0336L10.1809 11.0062C10.1809 11.0062 10.1918 10.9934 10.1973 10.9897L10.1206 10.8947L10.2156 10.9769L10.2338 10.9678L10.2485 10.9532C10.2832 10.9166 10.3161 10.8764 10.3471 10.8344C10.4202 10.7321 10.4732 10.6225 10.5061 10.5092C10.5207 10.522 10.5353 10.5367 10.5481 10.5494C10.9555 10.9221 11.4049 11.2309 11.8762 11.4702V11.8794C11.8762 11.947 11.931 12.0018 11.9986 12.0018C12.0662 12.0018 12.121 11.947 12.121 11.8794V11.5871C12.8024 11.894 13.5222 12.0584 14.2237 12.0584C14.4173 12.0584 14.6073 12.0456 14.7973 12.0201C16.4543 11.8008 17.3312 10.3485 17.3385 9.02584C17.3458 7.91877 16.7265 6.53767 14.9617 6.28373" fill="#D97904"/>
<path d="M6.28273 15.458C6.22062 15.458 6.16033 15.4398 6.11101 15.4032C6.04707 15.3576 6.00505 15.2881 5.99226 15.2114C5.97948 15.1347 5.99774 15.0561 6.04341 14.9922L8.67408 11.0462L8.90061 10.3154C8.91158 10.257 8.93167 10.193 8.95725 10.1346L8.97552 10.1035C8.97552 10.1035 8.981 10.0944 8.98282 10.0926V10.0889C8.98282 10.0889 8.99013 10.078 8.99196 10.0725C8.99196 10.0725 8.99196 10.0688 8.99378 10.067C8.99378 10.0652 8.99379 10.0615 8.99561 10.0597L9.00657 10.0305C9.02849 9.99209 9.05042 9.95738 9.07234 9.9245C9.18195 9.77104 9.32627 9.6523 9.48886 9.57922C8.47678 8.73704 7.89036 8.86858 7.53595 9.04396C6.92213 9.34539 6.82896 9.95556 6.72849 10.6004V10.6041C6.69743 10.8032 6.66455 11.0078 6.61705 11.2015C6.59878 11.2709 6.52753 11.3147 6.45811 11.2965C6.38869 11.2782 6.34485 11.207 6.36311 11.1375C6.40879 10.9567 6.43802 10.7685 6.46907 10.5676V10.5602C6.57138 9.90806 6.68464 9.17001 7.42086 8.80647C7.81912 8.61099 8.23016 8.60003 8.68139 8.76993C9.02667 8.90146 9.3829 9.13347 9.80491 9.5025C9.80856 9.5025 9.81222 9.5025 9.81404 9.5025C9.82318 9.5025 9.83231 9.50067 9.84327 9.50067C9.9949 9.50067 10.1374 9.54634 10.2561 9.63038C10.4333 9.75643 10.5393 9.96652 10.5503 10.2077C10.6106 10.2661 10.6672 10.3191 10.7183 10.3666C11.0691 10.6863 11.4546 10.9603 11.8656 11.1832V10.542C11.8656 10.4689 11.9241 10.4104 11.9971 10.4104C12.0702 10.4104 12.1287 10.4689 12.1287 10.542V11.3166C12.9982 11.7294 13.908 11.8884 14.763 11.7751C16.2775 11.5742 17.0758 10.2442 17.0849 9.03117C17.0904 8.0264 16.5277 6.77135 14.9256 6.54117C14.1674 6.43156 13.1462 6.53386 12.5762 7.00702C12.3004 7.23537 12.1542 7.53498 12.1396 7.89669C12.1396 7.91131 12.136 7.9241 12.1287 7.93871V9.20107C12.1287 9.27414 12.0702 9.3326 11.9971 9.3326C11.9241 9.3326 11.8656 9.27414 11.8656 9.20107V7.85833C11.8656 7.83823 11.8711 7.81814 11.8839 7.79622C11.9222 7.39613 12.0976 7.06182 12.4082 6.80424C13.0823 6.24339 14.2058 6.17214 14.9621 6.28175C16.7323 6.53751 17.3535 7.9241 17.3462 9.033C17.3389 10.3575 16.4601 11.8153 14.7977 12.0363C14.6077 12.0619 14.4141 12.0747 14.2241 12.0747C13.5372 12.0747 12.8119 11.9139 12.1305 11.607V11.8847C12.1305 11.9578 12.072 12.0163 11.999 12.0163C11.9259 12.0163 11.8674 11.9578 11.8674 11.8847V11.481C11.3888 11.2362 10.943 10.9274 10.543 10.5602C10.532 10.5511 10.521 10.5402 10.5101 10.5292C10.4754 10.6406 10.4242 10.7466 10.3548 10.8434C10.3237 10.8854 10.2909 10.9274 10.2561 10.9622L10.2379 10.9786L10.2141 10.9896L10.1904 10.9695L10.2105 10.9932L10.2032 10.9987C10.2032 10.9987 10.194 11.0078 10.1885 11.0133L10.1648 11.0425L10.1557 11.0462L10.1502 11.0498C10.1484 11.0517 10.1465 11.0535 10.1447 11.0572C10.1429 11.059 10.141 11.0608 10.1392 11.0645L10.1155 11.0864C10.0899 11.1065 10.0625 11.1229 10.0369 11.1394H10.0351L9.41944 11.5851L6.52022 15.343C6.46724 15.416 6.3759 15.4617 6.28273 15.4617V15.458ZM8.08036 8.89415C8.23381 8.89415 8.39092 8.92338 8.55534 8.98002C8.84581 9.08049 9.16003 9.27414 9.51626 9.57192L9.52723 9.58105L9.51444 9.58653C9.34819 9.65778 9.20205 9.77835 9.09243 9.93181C9.07051 9.96287 9.04859 9.99758 9.02849 10.0341L9.01753 10.0615C9.01753 10.0615 9.01753 10.067 9.01571 10.0688C9.01571 10.0707 9.01571 10.0725 9.01388 10.0743C9.01205 10.0798 9.01023 10.0853 9.00475 10.0944V10.0981C9.00475 10.0981 8.99744 10.1054 8.99378 10.1108L8.97734 10.1401C8.95177 10.1967 8.93167 10.2606 8.92071 10.3173L8.69235 11.0535L6.05986 14.9995C6.01601 15.0598 5.99957 15.1329 6.01053 15.2059C6.02332 15.279 6.06168 15.343 6.12197 15.3868C6.16947 15.4215 6.2261 15.4398 6.28456 15.4398C6.37225 15.4398 6.45811 15.3959 6.50744 15.3283L9.41031 11.5668L10.0296 11.1193C10.0552 11.1028 10.0808 11.0864 10.1063 11.0681L10.1283 11.048C10.1283 11.048 10.1319 11.0444 10.1337 11.0425C10.1356 11.0407 10.1374 11.0371 10.1411 11.0352V11.0316L10.1575 11.0261L10.1776 11.0005C10.1776 11.0005 10.1849 10.9932 10.1885 10.9896L10.1173 10.9L10.1301 10.8873L10.2214 10.9658L10.2324 10.9603L10.247 10.9457C10.2799 10.911 10.3128 10.8708 10.3438 10.8288C10.4151 10.7301 10.4681 10.6205 10.5009 10.5054L10.5046 10.4908L10.5192 10.5036C10.532 10.5164 10.5466 10.5292 10.5594 10.542C10.9595 10.9073 11.4071 11.2179 11.8857 11.4627H11.8912V11.8792C11.8912 11.9413 11.9423 11.9925 12.0044 11.9925C12.0666 11.9925 12.1177 11.9413 12.1177 11.8792V11.5723L12.1305 11.5778C12.8156 11.8865 13.5408 12.0491 14.2295 12.0491C14.4195 12.0491 14.6132 12.0363 14.8014 12.0108C16.4547 11.7915 17.3261 10.3429 17.3334 9.02569C17.3389 7.92409 16.7232 6.54665 14.9639 6.29272C14.2095 6.18493 13.0932 6.25435 12.4246 6.81154C12.1177 7.0673 11.9442 7.39613 11.9076 7.79256V7.79622C11.8948 7.81631 11.8893 7.83458 11.8893 7.85102V9.19376C11.8893 9.25587 11.9405 9.30703 12.0026 9.30703C12.0647 9.30703 12.1159 9.25587 12.1159 9.19376V7.92592C12.1214 7.91314 12.125 7.90035 12.1268 7.88938C12.1415 7.52219 12.2913 7.21893 12.5689 6.98692C13.1426 6.51011 14.1693 6.40781 14.9329 6.51742C16.546 6.74943 17.1142 8.01361 17.1087 9.02569C17.1014 10.246 16.2957 11.5851 14.7721 11.7861C13.9135 11.8993 12.9964 11.7404 12.1232 11.3239H12.1177V10.5347C12.1177 10.4726 12.0666 10.4214 12.0044 10.4214C11.9423 10.4214 11.8912 10.4726 11.8912 10.5347V11.207L11.8784 11.1996C11.46 10.9749 11.0691 10.6973 10.7129 10.3721C10.6599 10.3228 10.6032 10.2698 10.5411 10.2095H10.5393V10.204C10.5302 9.96835 10.4242 9.76191 10.2525 9.63769C10.1374 9.55548 9.99855 9.51163 9.85058 9.51163C9.84144 9.51163 9.83231 9.51163 9.82318 9.51346C9.8177 9.51346 9.81404 9.51346 9.80856 9.51346H9.80491L9.80126 9.51163C9.16916 8.9581 8.32881 8.37716 7.43548 8.8156C6.70656 9.17366 6.5933 9.90806 6.49465 10.5548V10.5621C6.46176 10.763 6.43254 10.953 6.38686 11.1339C6.37225 11.1942 6.40879 11.2563 6.46907 11.2709C6.52936 11.2855 6.59147 11.249 6.60609 11.1887C6.65358 10.9969 6.68647 10.7923 6.7157 10.5931V10.5895C6.81618 9.93912 6.91117 9.32347 7.53413 9.01838C7.71133 8.93069 7.89402 8.88867 8.08218 8.88867L8.08036 8.89415ZM6.28273 15.2132C6.28273 15.2132 6.26446 15.2132 6.2535 15.2041C6.23889 15.1932 6.23341 15.1785 6.23341 15.1712C6.23341 15.1657 6.23158 15.1493 6.24437 15.1292L8.88783 11.1668L9.13811 10.3739C9.14724 10.3319 9.16003 10.2862 9.1783 10.2405C9.18743 10.2259 9.19657 10.2131 9.19839 10.2077L9.20935 10.1857C9.21301 10.1766 9.21849 10.1656 9.22214 10.1547C9.22397 10.1474 9.22762 10.1401 9.22945 10.1328C9.24406 10.109 9.25868 10.0853 9.27512 10.0615C9.38839 9.9044 9.55097 9.79297 9.7227 9.7546H9.72818L9.73183 9.75643C9.7428 9.76739 9.75558 9.77835 9.76654 9.78749L9.78116 9.80028L9.76472 9.80576C9.61674 9.85143 9.46694 9.96469 9.35733 10.12C9.22945 10.299 9.16734 10.5054 9.19474 10.6717C9.21118 10.774 9.25868 10.8544 9.33358 10.9073C9.38838 10.9475 9.45781 10.9695 9.53271 10.9695C9.71905 10.9695 9.92548 10.8416 10.0735 10.6351C10.1593 10.5164 10.2141 10.3849 10.2324 10.2533V10.2351L10.247 10.2479C10.2653 10.2661 10.2835 10.2826 10.3018 10.3008L10.3055 10.3045V10.3081C10.2909 10.4452 10.2397 10.5785 10.1557 10.6954C10.1356 10.7228 10.1136 10.7484 10.0899 10.7758H10.0862C10.0862 10.7758 10.0808 10.7813 10.0771 10.7831L10.0698 10.7886C10.0698 10.7886 10.0534 10.7996 10.0461 10.8069C10.0314 10.8178 10.0187 10.8306 10.0059 10.8452C10.0059 10.8452 9.99125 10.858 9.98577 10.8635L9.97481 10.8745C9.97481 10.8745 9.96385 10.8854 9.95836 10.8909H9.95654C9.94009 10.9037 9.92183 10.9147 9.89808 10.9311L9.24406 11.4024L6.31927 15.1913C6.30648 15.2096 6.28639 15.2132 6.27908 15.2132H6.28273ZM9.7227 9.7747C9.55646 9.81306 9.39935 9.92085 9.28974 10.0743C9.27329 10.0962 9.25868 10.12 9.24589 10.1419C9.24589 10.1474 9.24224 10.1547 9.23858 10.162C9.23493 10.173 9.22945 10.1839 9.22397 10.1949L9.21301 10.2168C9.21301 10.2168 9.20205 10.2369 9.19291 10.2497C9.17647 10.2917 9.16368 10.3355 9.15455 10.3776L8.90244 11.1741L6.25716 15.1383C6.2462 15.153 6.24802 15.1639 6.24802 15.1657C6.24802 15.1712 6.25168 15.1804 6.26081 15.1877C6.26812 15.1932 6.27543 15.1932 6.27908 15.1932C6.28456 15.1932 6.29735 15.1932 6.30466 15.1785L9.23127 11.386L9.88529 10.9128C9.90904 10.8982 9.92731 10.8873 9.94375 10.8763C9.94923 10.8708 9.95471 10.8653 9.96019 10.8599L9.97115 10.8489C9.97115 10.8489 9.98394 10.8379 9.99125 10.8306C10.004 10.816 10.0186 10.8032 10.0333 10.7904C10.0424 10.7831 10.0497 10.7776 10.0588 10.7722L10.0661 10.7667C10.0661 10.7667 10.0716 10.763 10.0753 10.7612C10.0972 10.7356 10.1191 10.71 10.1374 10.6845C10.2178 10.573 10.2671 10.4433 10.2817 10.3118C10.2689 10.299 10.2561 10.2862 10.2434 10.2753C10.2214 10.4031 10.1666 10.5328 10.0844 10.6479C9.93279 10.8599 9.71905 10.9896 9.52905 10.9896C9.4505 10.9896 9.37925 10.9676 9.31897 10.9256C9.24041 10.869 9.19109 10.785 9.17282 10.6772C9.14541 10.5054 9.2057 10.2935 9.33723 10.1108C9.44684 9.95921 9.59116 9.84412 9.73914 9.7948C9.73183 9.78749 9.72453 9.78201 9.71539 9.7747H9.7227ZM9.53453 10.7466C9.50713 10.7466 9.48521 10.7411 9.46694 10.7283C9.44319 10.7119 9.42675 10.6808 9.42127 10.6388C9.40665 10.5548 9.43223 10.4104 9.54367 10.2552C9.66241 10.0907 9.81221 10.014 9.90173 10.014C9.93096 10.014 9.95106 10.0195 9.96933 10.0323C10.0515 10.0926 10.0369 10.3063 9.89442 10.5054C9.825 10.6004 9.74097 10.6753 9.65511 10.7155C9.61309 10.7356 9.57107 10.7448 9.53819 10.7448L9.53453 10.7466ZM9.8999 10.0323C9.81587 10.0323 9.67155 10.1054 9.55645 10.2643C9.44867 10.4141 9.42492 10.5548 9.43771 10.6351C9.44319 10.6717 9.45598 10.6973 9.47608 10.7119C9.51079 10.7356 9.5729 10.732 9.64232 10.6991C9.72453 10.6607 9.80673 10.5877 9.87433 10.4945C10.0113 10.3045 10.0296 10.1017 9.95471 10.0469C9.9401 10.0359 9.92365 10.0323 9.89808 10.0323H9.8999Z" fill="#D97904"/>
<path d="M10.1516 10.6919C10.1315 10.7193 10.1096 10.7467 10.0877 10.7723C10.0822 10.7741 10.0786 10.7778 10.0749 10.7796C10.0658 10.7869 10.0566 10.7924 10.0475 10.7997C10.0329 10.8107 10.0201 10.8235 10.0055 10.8399C9.99818 10.8472 9.99088 10.8527 9.9854 10.8582L9.97444 10.8691C9.97444 10.8691 9.96348 10.8801 9.95799 10.8874C9.94155 10.8984 9.92328 10.9093 9.89953 10.9239L9.24552 11.3971L6.32073 15.1878C6.30977 15.2043 6.29332 15.2061 6.28784 15.2061C6.28236 15.2061 6.27323 15.2061 6.26409 15.1988C6.25131 15.1896 6.24765 15.1787 6.24765 15.1714C6.24765 15.1659 6.24765 15.1513 6.25861 15.1367L8.9039 11.1724L9.15418 10.3795C9.16331 10.3339 9.17793 10.29 9.19437 10.248C9.2035 10.2352 9.21081 10.2224 9.21446 10.2151L9.22542 10.1932C9.2309 10.1822 9.23456 10.1731 9.24004 10.1603C9.24187 10.153 9.24552 10.1457 9.24735 10.1384C9.26014 10.1146 9.27475 10.0927 9.29119 10.0708C9.40446 9.91186 9.56705 9.80408 9.73329 9.76755C9.74608 9.78033 9.75887 9.79129 9.77165 9.80225C9.62368 9.84792 9.47388 9.95936 9.35878 10.1201C9.22908 10.301 9.16696 10.5092 9.19619 10.6791C9.21264 10.7833 9.26196 10.8673 9.33869 10.9203C9.39532 10.9623 9.46657 10.9842 9.5433 10.9842C9.73146 10.9842 9.94155 10.8545 10.0914 10.6463C10.1827 10.5202 10.2339 10.385 10.2521 10.2608C10.2704 10.2791 10.2887 10.2955 10.3069 10.3138C10.2941 10.4417 10.2466 10.5768 10.1608 10.6956L10.1516 10.6919ZM9.88492 10.5001C9.73329 10.7102 9.5433 10.7705 9.47388 10.7193C9.45195 10.7047 9.43734 10.6755 9.43186 10.6371C9.41724 10.5549 9.44282 10.4124 9.55243 10.2608C9.66935 10.0982 9.8155 10.0233 9.90319 10.0233C9.92876 10.0233 9.94886 10.0288 9.9653 10.0397C10.0439 10.0964 10.0274 10.3065 9.88857 10.5001H9.88492ZM14.9636 6.28739C14.2073 6.17778 13.0874 6.25085 12.4169 6.80804C12.1064 7.06563 11.9328 7.39811 11.8963 7.79454C11.8853 7.81281 11.878 7.83291 11.878 7.85483V9.19756C11.878 9.26516 11.9328 9.31996 12.0004 9.31996C12.068 9.31996 12.1228 9.26516 12.1228 9.19756V7.93338C12.1283 7.92059 12.1319 7.90781 12.1338 7.89319C12.1484 7.52965 12.2964 7.22639 12.574 6.9962C13.1459 6.52122 14.1689 6.41892 14.9307 6.52853C16.5401 6.76054 17.1028 8.01925 17.0973 9.02767C17.09 10.2425 16.288 11.5798 14.7681 11.7789C13.9022 11.894 12.9796 11.7259 12.1246 11.3185V10.5385C12.1246 10.4709 12.0698 10.4161 12.0022 10.4161C11.9346 10.4161 11.8798 10.4709 11.8798 10.5385V11.1961C11.4688 10.9751 11.076 10.6974 10.7161 10.3704C10.6613 10.3193 10.6047 10.2644 10.5444 10.2078C10.5353 9.97763 10.4366 9.76572 10.2539 9.63418C10.137 9.55015 9.99636 9.5063 9.84656 9.5063C9.83194 9.5063 9.81915 9.50813 9.80454 9.50996C9.11581 8.9071 8.29008 8.3901 7.4278 8.8121C6.69523 9.17199 6.58197 9.90821 6.48149 10.5586C6.45043 10.7614 6.4212 10.9532 6.37553 11.1359C6.35909 11.2016 6.39928 11.2674 6.46505 11.2838C6.52899 11.3003 6.59658 11.2601 6.61302 11.1943C6.66052 11.0007 6.6934 10.7942 6.72446 10.5933C6.82494 9.94475 6.91811 9.33275 7.53558 9.02949C8.22248 8.69153 8.90207 9.06603 9.51041 9.57572C9.34782 9.64697 9.19802 9.76572 9.08476 9.92465C9.06101 9.95754 9.03909 9.99225 9.01899 10.027L9.00803 10.0562C9.00803 10.0562 9.00437 10.0671 9.00255 10.0708C9.00255 10.0745 8.9989 10.0799 8.99524 10.0891C8.99341 10.0927 8.98976 10.0982 8.98611 10.1037L8.96784 10.1329C8.94043 10.195 8.92217 10.259 8.91121 10.3138L8.68285 11.0463L6.05035 14.9923C6.00468 15.0545 5.98641 15.1294 6.00103 15.2061C6.01382 15.281 6.054 15.3468 6.11612 15.3924C6.16544 15.4271 6.22208 15.4472 6.28419 15.4472C6.37553 15.4472 6.46322 15.4016 6.51437 15.3321L9.41359 11.5725L10.0292 11.1267C10.0566 11.1103 10.0822 11.0938 10.1078 11.0737L10.1315 11.0518C10.1315 11.0518 10.1389 11.0427 10.1462 11.0372L10.1589 11.0336L10.1809 11.0062C10.1809 11.0062 10.1918 10.9934 10.1973 10.9897L10.1206 10.8947L10.2156 10.9769L10.2338 10.9678L10.2485 10.9532C10.2832 10.9166 10.3161 10.8764 10.3471 10.8344C10.4202 10.7321 10.4732 10.6225 10.5061 10.5092C10.5207 10.522 10.5353 10.5367 10.5481 10.5494C10.9555 10.9221 11.4049 11.2309 11.8762 11.4702V11.8794C11.8762 11.947 11.931 12.0018 11.9986 12.0018C12.0662 12.0018 12.121 11.947 12.121 11.8794V11.5871C12.8024 11.894 13.5222 12.0584 14.2237 12.0584C14.4173 12.0584 14.6073 12.0456 14.7973 12.0201C16.4543 11.8008 17.3312 10.3485 17.3385 9.02584C17.3458 7.91877 16.7265 6.53767 14.9617 6.28373L14.9636 6.28739Z" fill="#D97904"/>
<path d="M6.28273 15.458C6.22062 15.458 6.16033 15.4398 6.11101 15.4032C6.04707 15.3576 6.00505 15.2881 5.99226 15.2114C5.97948 15.1347 5.99774 15.0561 6.04341 14.9922L8.67408 11.0462L8.90061 10.3154C8.91158 10.257 8.93167 10.193 8.95725 10.1346L8.97552 10.1035C8.97552 10.1035 8.981 10.0944 8.98282 10.0926V10.0889C8.98282 10.0889 8.99013 10.078 8.99196 10.0725C8.99196 10.0725 8.99196 10.0688 8.99378 10.067C8.99378 10.0652 8.99379 10.0615 8.99561 10.0597L9.00657 10.0305C9.02849 9.99209 9.05042 9.95738 9.07234 9.9245C9.18195 9.77104 9.32627 9.6523 9.48886 9.57922C8.47678 8.73704 7.89036 8.86858 7.53595 9.04396C6.92213 9.34539 6.82896 9.95556 6.72849 10.6004V10.6041C6.69743 10.8032 6.66455 11.0078 6.61705 11.2015C6.59878 11.2709 6.52753 11.3147 6.45811 11.2965C6.38869 11.2782 6.34485 11.207 6.36311 11.1375C6.40879 10.9567 6.43802 10.7685 6.46907 10.5676V10.5602C6.57138 9.90806 6.68464 9.17001 7.42086 8.80647C7.81912 8.61099 8.23016 8.60003 8.68139 8.76993C9.02667 8.90146 9.3829 9.13347 9.80491 9.5025C9.80856 9.5025 9.81222 9.5025 9.81404 9.5025C9.82318 9.5025 9.83231 9.50067 9.84327 9.50067C9.9949 9.50067 10.1374 9.54634 10.2561 9.63038C10.4333 9.75643 10.5393 9.96652 10.5503 10.2077C10.6106 10.2661 10.6672 10.3191 10.7183 10.3666C11.0691 10.6863 11.4546 10.9603 11.8656 11.1832V10.542C11.8656 10.4689 11.9241 10.4104 11.9971 10.4104C12.0702 10.4104 12.1287 10.4689 12.1287 10.542V11.3166C12.9982 11.7294 13.908 11.8884 14.763 11.7751C16.2775 11.5742 17.0758 10.2442 17.0849 9.03117C17.0904 8.0264 16.5277 6.77135 14.9256 6.54117C14.1674 6.43156 13.1462 6.53386 12.5762 7.00702C12.3004 7.23537 12.1542 7.53498 12.1396 7.89669C12.1396 7.91131 12.136 7.9241 12.1287 7.93871V9.20107C12.1287 9.27414 12.0702 9.3326 11.9971 9.3326C11.9241 9.3326 11.8656 9.27414 11.8656 9.20107V7.85833C11.8656 7.83823 11.8711 7.81814 11.8839 7.79622C11.9222 7.39613 12.0976 7.06182 12.4082 6.80424C13.0823 6.24339 14.2058 6.17214 14.9621 6.28175C16.7323 6.53751 17.3535 7.9241 17.3462 9.033C17.3389 10.3575 16.4601 11.8153 14.7977 12.0363C14.6077 12.0619 14.4141 12.0747 14.2241 12.0747C13.5372 12.0747 12.8119 11.9139 12.1305 11.607V11.8847C12.1305 11.9578 12.072 12.0163 11.999 12.0163C11.9259 12.0163 11.8674 11.9578 11.8674 11.8847V11.481C11.3888 11.2362 10.943 10.9274 10.543 10.5602C10.532 10.5511 10.521 10.5402 10.5101 10.5292C10.4754 10.6406 10.4242 10.7466 10.3548 10.8434C10.3237 10.8854 10.2909 10.9274 10.2561 10.9622L10.2379 10.9786L10.2141 10.9896L10.1904 10.9695L10.2105 10.9932L10.2032 10.9987C10.2032 10.9987 10.194 11.0078 10.1885 11.0133L10.1648 11.0425L10.1557 11.0462L10.1502 11.0498C10.1484 11.0517 10.1465 11.0535 10.1447 11.0572C10.1429 11.059 10.141 11.0608 10.1392 11.0645L10.1155 11.0864C10.0899 11.1065 10.0625 11.1229 10.0369 11.1394H10.0351L9.41944 11.5851L6.52022 15.343C6.46724 15.416 6.3759 15.4617 6.28273 15.4617V15.458ZM8.08036 8.89415C8.23381 8.89415 8.39092 8.92338 8.55534 8.98002C8.84581 9.08049 9.16003 9.27414 9.51626 9.57192L9.52723 9.58105L9.51444 9.58653C9.34819 9.65778 9.20205 9.77835 9.09243 9.93181C9.07051 9.96287 9.04859 9.99758 9.02849 10.0341L9.01753 10.0615C9.01753 10.0615 9.01753 10.067 9.01571 10.0688C9.01571 10.0707 9.01571 10.0725 9.01388 10.0743C9.01205 10.0798 9.01023 10.0853 9.00475 10.0944V10.0981C9.00475 10.0981 8.99744 10.1054 8.99378 10.1108L8.97734 10.1401C8.95177 10.1967 8.93167 10.2606 8.92071 10.3173L8.69235 11.0535L6.05986 14.9995C6.01601 15.0598 5.99957 15.1329 6.01053 15.2059C6.02332 15.279 6.06168 15.343 6.12197 15.3868C6.16947 15.4215 6.2261 15.4398 6.28456 15.4398C6.37225 15.4398 6.45811 15.3959 6.50744 15.3283L9.41031 11.5668L10.0296 11.1193C10.0552 11.1028 10.0808 11.0864 10.1063 11.0681L10.1283 11.048C10.1283 11.048 10.1319 11.0444 10.1337 11.0425C10.1356 11.0407 10.1374 11.0371 10.1411 11.0352V11.0316L10.1575 11.0261L10.1776 11.0005C10.1776 11.0005 10.1849 10.9932 10.1885 10.9896L10.1173 10.9L10.1301 10.8873L10.2214 10.9658L10.2324 10.9603L10.247 10.9457C10.2799 10.911 10.3128 10.8708 10.3438 10.8288C10.4151 10.7301 10.4681 10.6205 10.5009 10.5054L10.5046 10.4908L10.5192 10.5036C10.532 10.5164 10.5466 10.5292 10.5594 10.542C10.9595 10.9073 11.4071 11.2179 11.8857 11.4627H11.8912V11.8792C11.8912 11.9413 11.9423 11.9925 12.0044 11.9925C12.0666 11.9925 12.1177 11.9413 12.1177 11.8792V11.5723L12.1305 11.5778C12.8156 11.8865 13.5408 12.0491 14.2295 12.0491C14.4195 12.0491 14.6132 12.0363 14.8014 12.0108C16.4547 11.7915 17.3261 10.3429 17.3334 9.02569C17.3389 7.92409 16.7232 6.54665 14.9639 6.29272C14.2095 6.18493 13.0932 6.25435 12.4246 6.81154C12.1177 7.0673 11.9442 7.39613 11.9076 7.79256V7.79622C11.8948 7.81631 11.8893 7.83458 11.8893 7.85102V9.19376C11.8893 9.25587 11.9405 9.30703 12.0026 9.30703C12.0647 9.30703 12.1159 9.25587 12.1159 9.19376V7.92592C12.1214 7.91314 12.125 7.90035 12.1268 7.88938C12.1415 7.52219 12.2913 7.21893 12.5689 6.98692C13.1426 6.51011 14.1693 6.40781 14.9329 6.51742C16.546 6.74943 17.1142 8.01361 17.1087 9.02569C17.1014 10.246 16.2957 11.5851 14.7721 11.7861C13.9135 11.8993 12.9964 11.7404 12.1232 11.3239H12.1177V10.5347C12.1177 10.4726 12.0666 10.4214 12.0044 10.4214C11.9423 10.4214 11.8912 10.4726 11.8912 10.5347V11.207L11.8784 11.1996C11.46 10.9749 11.0691 10.6973 10.7129 10.3721C10.6599 10.3228 10.6032 10.2698 10.5411 10.2095H10.5393V10.204C10.5302 9.96835 10.4242 9.76191 10.2525 9.63769C10.1374 9.55548 9.99855 9.51163 9.85058 9.51163C9.84144 9.51163 9.83231 9.51163 9.82318 9.51346C9.8177 9.51346 9.81404 9.51346 9.80856 9.51346H9.80491L9.80126 9.51163C9.16916 8.9581 8.32881 8.37716 7.43548 8.8156C6.70656 9.17366 6.5933 9.90806 6.49465 10.5548V10.5621C6.46176 10.763 6.43254 10.953 6.38686 11.1339C6.37225 11.1942 6.40879 11.2563 6.46907 11.2709C6.52936 11.2855 6.59147 11.249 6.60609 11.1887C6.65358 10.9969 6.68647 10.7923 6.7157 10.5931V10.5895C6.81618 9.93912 6.91117 9.32347 7.53413 9.01838C7.71133 8.93069 7.89402 8.88867 8.08218 8.88867L8.08036 8.89415ZM6.28273 15.2132C6.28273 15.2132 6.26446 15.2132 6.2535 15.2041C6.23889 15.1932 6.23341 15.1785 6.23341 15.1712C6.23341 15.1657 6.23158 15.1493 6.24437 15.1292L8.88783 11.1668L9.13811 10.3739C9.14724 10.3319 9.16003 10.2862 9.1783 10.2405C9.18743 10.2259 9.19657 10.2131 9.19839 10.2077L9.20935 10.1857C9.21301 10.1766 9.21849 10.1656 9.22214 10.1547C9.22397 10.1474 9.22762 10.1401 9.22945 10.1328C9.24406 10.109 9.25868 10.0853 9.27512 10.0615C9.38839 9.9044 9.55097 9.79297 9.7227 9.7546H9.72818L9.73183 9.75643C9.7428 9.76739 9.75558 9.77835 9.76654 9.78749L9.78116 9.80028L9.76472 9.80576C9.61674 9.85143 9.46694 9.96469 9.35733 10.12C9.22945 10.299 9.16734 10.5054 9.19474 10.6717C9.21118 10.774 9.25868 10.8544 9.33358 10.9073C9.38838 10.9475 9.45781 10.9695 9.53271 10.9695C9.71905 10.9695 9.92548 10.8416 10.0735 10.6351C10.1593 10.5164 10.2141 10.3849 10.2324 10.2533V10.2351L10.247 10.2479C10.2653 10.2661 10.2835 10.2826 10.3018 10.3008L10.3055 10.3045V10.3081C10.2909 10.4452 10.2397 10.5785 10.1557 10.6954C10.1356 10.7228 10.1136 10.7484 10.0899 10.7758H10.0862C10.0862 10.7758 10.0808 10.7813 10.0771 10.7831L10.0698 10.7886C10.0698 10.7886 10.0534 10.7996 10.0461 10.8069C10.0314 10.8178 10.0187 10.8306 10.0059 10.8452C10.0059 10.8452 9.99125 10.858 9.98577 10.8635L9.97481 10.8745C9.97481 10.8745 9.96385 10.8854 9.95836 10.8909H9.95654C9.94009 10.9037 9.92183 10.9147 9.89808 10.9311L9.24406 11.4024L6.31927 15.1913C6.30648 15.2096 6.28639 15.2132 6.27908 15.2132H6.28273ZM9.7227 9.7747C9.55646 9.81306 9.39935 9.92085 9.28974 10.0743C9.27329 10.0962 9.25868 10.12 9.24589 10.1419C9.24589 10.1474 9.24224 10.1547 9.23858 10.162C9.23493 10.173 9.22945 10.1839 9.22397 10.1949L9.21301 10.2168C9.21301 10.2168 9.20205 10.2369 9.19291 10.2497C9.17647 10.2917 9.16368 10.3355 9.15455 10.3776L8.90244 11.1741L6.25716 15.1383C6.2462 15.153 6.24802 15.1639 6.24802 15.1657C6.24802 15.1712 6.25168 15.1804 6.26081 15.1877C6.26812 15.1932 6.27543 15.1932 6.27908 15.1932C6.28456 15.1932 6.29735 15.1932 6.30466 15.1785L9.23127 11.386L9.88529 10.9128C9.90904 10.8982 9.92731 10.8873 9.94375 10.8763C9.94923 10.8708 9.95471 10.8653 9.96019 10.8599L9.97115 10.8489C9.97115 10.8489 9.98394 10.8379 9.99125 10.8306C10.004 10.816 10.0186 10.8032 10.0333 10.7904C10.0424 10.7831 10.0497 10.7776 10.0588 10.7722L10.0661 10.7667C10.0661 10.7667 10.0716 10.763 10.0753 10.7612C10.0972 10.7356 10.1191 10.71 10.1374 10.6845C10.2178 10.573 10.2671 10.4433 10.2817 10.3118C10.2689 10.299 10.2561 10.2862 10.2434 10.2753C10.2214 10.4031 10.1666 10.5328 10.0844 10.6479C9.93279 10.8599 9.71905 10.9896 9.52905 10.9896C9.4505 10.9896 9.37925 10.9676 9.31897 10.9256C9.24041 10.869 9.19109 10.785 9.17282 10.6772C9.14541 10.5054 9.2057 10.2935 9.33723 10.1108C9.44684 9.95921 9.59116 9.84412 9.73914 9.7948C9.73183 9.78749 9.72453 9.78201 9.71539 9.7747H9.7227ZM9.53453 10.7466C9.50713 10.7466 9.48521 10.7411 9.46694 10.7283C9.44319 10.7119 9.42675 10.6808 9.42127 10.6388C9.40665 10.5548 9.43223 10.4104 9.54367 10.2552C9.66241 10.0907 9.81221 10.014 9.90173 10.014C9.93096 10.014 9.95106 10.0195 9.96933 10.0323C10.0515 10.0926 10.0369 10.3063 9.89442 10.5054C9.825 10.6004 9.74097 10.6753 9.65511 10.7155C9.61309 10.7356 9.57107 10.7448 9.53819 10.7448L9.53453 10.7466ZM9.8999 10.0323C9.81587 10.0323 9.67155 10.1054 9.55645 10.2643C9.44867 10.4141 9.42492 10.5548 9.43771 10.6351C9.44319 10.6717 9.45598 10.6973 9.47608 10.7119C9.51079 10.7356 9.5729 10.732 9.64232 10.6991C9.72453 10.6607 9.80673 10.5877 9.87433 10.4945C10.0113 10.3045 10.0296 10.1017 9.95471 10.0469C9.9401 10.0359 9.92365 10.0323 9.89808 10.0323H9.8999Z" fill="#D97904"/>
</svg>
